<svg width="56" height="56" viewBox="0 0 56 56" fill="none" xmlns="http://www.w3.org/2000/svg">
<path d="M36.636 15.0723H9.81844C9.36344 15.0723 8.99463 15.4411 8.99463 15.8961C8.99463 16.3511 9.36344 16.7199 9.81844 16.7199H36.6361C37.0911 16.7199 37.4599 16.3511 37.4599 15.8961C37.4599 15.4411 37.091 15.0723 36.636 15.0723Z" fill="#E92D45"/>
<path d="M9.81844 11.0054H23.2272C23.6822 11.0054 24.051 10.6366 24.051 10.1816C24.051 9.7266 23.6822 9.35779 23.2272 9.35779H9.81844C9.36344 9.35779 8.99463 9.7266 8.99463 10.1816C8.99463 10.6367 9.36344 11.0054 9.81844 11.0054Z" fill="#E92D45"/>
<path d="M36.636 20.1355H9.81844C9.36344 20.1355 8.99463 20.5043 8.99463 20.9593C8.99463 21.4143 9.36344 21.7831 9.81844 21.7831H36.6361C37.0911 21.7831 37.4599 21.4143 37.4599 20.9593C37.4598 20.5043 37.091 20.1355 36.636 20.1355Z" fill="#E92D45"/>
<path d="M15.9272 50.2762H7.34487C5.93623 50.2762 4.79009 49.1302 4.79009 47.7215V4.2023C4.79009 2.79366 5.93623 1.64752 7.34487 1.64752H32.0697C32.1496 1.64752 32.2282 1.65484 32.306 1.66534V6.80312C32.306 9.12034 34.1912 11.0054 36.5083 11.0054H41.646C41.6566 11.0833 41.6638 11.1619 41.6638 11.2418V25.2703C41.6638 25.7253 42.0326 26.0941 42.4876 26.0941C42.9426 26.0941 43.3114 25.7253 43.3114 25.2703V11.2419C43.3114 10.3382 42.9594 9.48861 42.3205 8.84953L34.4619 0.990938C33.8229 0.351969 32.9734 0 32.0697 0H7.34487C5.02766 0 3.14258 1.88519 3.14258 4.2023V47.7215C3.14258 50.0386 5.02777 51.9237 7.34487 51.9237H15.9272C16.3822 51.9237 16.751 51.5549 16.751 51.0999C16.751 50.6449 16.3822 50.2762 15.9272 50.2762ZM40.4988 9.35791H36.5084C35.0998 9.35791 33.9536 8.21177 33.9536 6.80312V2.81269L40.4988 9.35791Z" fill="#E92D45"/>
<path d="M52.6051 40.3297L45.625 28.5479C45.1163 27.6888 44.0093 27.4049 43.1498 27.914L41.452 28.9199C40.1341 29.7007 39.577 31.2806 40.0295 32.6807C39.4575 32.888 38.8303 32.8847 38.2528 32.6614C36.9123 32.2397 35.8932 31.3913 34.21 31.817C31.352 32.5446 31.4389 32.5082 31.1803 32.5968C29.5069 31.644 28.501 31.3605 26.7245 32.0477L25.141 32.6599C24.4078 32.9432 23.6 32.876 22.9225 32.4746L22.4904 32.2199C22.7013 30.9564 22.1409 29.623 20.9544 28.9202C20.9544 28.9202 20.9544 28.9202 20.9543 28.9201L19.2566 27.9142C18.3995 27.4066 17.2892 27.6908 16.7814 28.5479L9.80113 40.3298C9.29243 41.1887 9.57549 42.2961 10.4347 42.805L12.1325 43.8108C12.6462 44.1152 13.2108 44.2599 13.7686 44.2599C14.3906 44.2599 15.0039 44.0797 15.5282 43.7402L15.8821 43.949L15.135 44.9894C14.2448 46.2295 14.5277 47.9539 15.768 48.8442C16.3415 49.2559 17.0621 49.444 17.8073 49.3269C17.9255 50.0181 18.3042 50.6649 18.9173 51.1052C19.4932 51.5187 20.2105 51.7069 20.9569 51.5893C21.0755 52.2799 21.4539 52.9262 22.0668 53.3663C22.8904 53.9574 23.9143 54.0258 24.7676 53.6613C24.9543 54.1463 25.2788 54.5843 25.7315 54.9093C26.9136 55.7577 28.542 55.5365 29.4605 54.4373L31.4457 55.6133C32.7585 56.3912 34.4524 55.9589 35.2308 54.6445C35.4299 54.3085 35.5534 53.9423 35.5985 53.566L35.603 53.5687C36.9139 54.345 38.6116 53.9104 39.3882 52.5999C39.613 52.2202 39.7363 51.8084 39.7663 51.3958C40.9217 51.6863 42.1809 51.201 42.8186 50.1247C43.0278 49.7716 43.1491 49.3902 43.1891 49.0065C44.4274 49.4924 45.8748 49.0227 46.5741 47.8424C46.9502 47.2075 47.0567 46.4641 46.8737 45.7492C46.769 45.3401 46.5765 44.9688 46.3123 44.6552L47.4064 44.0159C48.3321 44.3959 49.3884 44.335 50.2737 43.8107L51.9712 42.8049C52.8305 42.2963 53.1143 41.1891 52.6051 40.3297ZM12.9722 42.3934L11.2745 41.3875C11.1991 41.3428 11.174 41.245 11.2186 41.1695L18.1989 29.3873C18.2439 29.3115 18.342 29.2869 18.417 29.3315L20.1146 30.3372C20.869 30.7842 21.105 31.7518 20.6662 32.4924L15.1274 41.8417C14.6853 42.5881 13.7186 42.8354 12.9722 42.3934ZM16.7287 47.5058C16.2284 47.1466 16.114 46.4508 16.4734 45.9503L17.5715 44.4208C17.9212 43.9335 18.6183 43.8002 19.127 44.1654C19.6263 44.5238 19.7408 45.2215 19.3825 45.7208L18.2844 47.2503C17.9259 47.7498 17.2278 47.864 16.7287 47.5058ZM19.8782 49.7669C19.3789 49.4084 19.2644 48.7105 19.6228 48.2113L20.7208 46.6819C20.7208 46.6819 20.7208 46.6819 20.7208 46.6818C20.7208 46.6818 20.7208 46.6817 20.7209 46.6817L21.9327 44.9938C22.1064 44.752 22.3637 44.5921 22.6575 44.544C22.7185 44.5339 22.7797 44.529 22.8404 44.529C23.0716 44.529 23.2966 44.6009 23.4882 44.7384C23.7299 44.9121 23.8898 45.1694 23.938 45.4631C23.9862 45.757 23.9172 46.052 23.7435 46.2938L21.4336 49.5114C21.0746 50.0118 20.3787 50.1263 19.8782 49.7669ZM23.0276 52.0278C22.5286 51.6695 22.4139 50.9721 22.7717 50.473C22.7718 50.4727 22.772 50.4725 22.7721 50.4723L25.082 47.2548C25.4402 46.7556 26.1385 46.641 26.6376 46.9993C27.1368 47.3577 27.2514 48.0555 26.8929 48.5548L25.8667 49.9845C25.8667 49.9845 25.8667 49.9845 25.8666 49.9846L24.5831 51.7724C24.2246 52.2717 23.527 52.3865 23.0276 52.0278ZM26.6923 53.5709C26.1934 53.2126 26.0786 52.5155 26.4362 52.0162L27.205 50.9455C27.5633 50.446 28.2614 50.3319 28.7605 50.6901C29.2597 51.0484 29.3743 51.7463 29.0159 52.2456L28.2478 53.3154C27.8895 53.8148 27.1914 53.9294 26.6923 53.5709ZM45.1569 47.0027C44.8435 47.5318 44.1583 47.7072 43.6292 47.3938C42.7332 46.863 36.9534 43.4388 36.3371 43.0737C35.9456 42.8419 35.4404 42.971 35.2085 43.3625C34.9766 43.7539 35.1058 44.2592 35.4973 44.4911L41.0101 47.7572L41.0102 47.7573C41.5395 48.0707 41.716 48.7538 41.4013 49.2851C41.0877 49.8144 40.4023 49.9895 39.8733 49.6764C37.8344 48.4684 36.1788 47.4876 34.3576 46.4086C33.9659 46.1767 33.4608 46.3059 33.2289 46.6973C32.997 47.0888 33.1262 47.5941 33.5177 47.826L37.5796 50.2324L37.5805 50.233C38.1101 50.5474 38.2849 51.2302 37.9709 51.7604C37.6573 52.2897 36.9721 52.465 36.4428 52.1515L34.2628 50.8601C34.2626 50.86 34.2623 50.8599 34.2621 50.8597C34.2619 50.8596 34.2616 50.8595 34.2614 50.8594L32.6706 49.9168C32.279 49.6848 31.7738 49.814 31.5419 50.2055C31.3101 50.597 31.4392 51.1023 31.8307 51.3342L33.4219 52.2769C33.4221 52.277 33.4223 52.2772 33.4225 52.2773C33.9518 52.5908 34.1283 53.2737 33.8136 53.8051C33.5001 54.3343 32.8148 54.5097 32.2856 54.1962L30.4294 53.0966C31.2251 51.8688 30.9224 50.2142 29.7214 49.3521C29.3686 49.099 28.9759 48.9414 28.5741 48.8737C29.0003 47.7343 28.6329 46.4041 27.5983 45.6614C26.9858 45.2215 26.2524 45.0696 25.5603 45.1781C25.4372 44.4579 25.0433 43.827 24.4491 43.4005C23.3315 42.5985 21.8127 42.7526 20.8746 43.7017C20.6839 43.3669 20.4208 43.0665 20.0878 42.8275C19.1591 42.161 17.9534 42.1548 17.034 42.7162L16.6565 42.4934L21.8376 33.7479L22.0843 33.8933C23.1736 34.5387 24.503 34.6732 25.735 34.1967L27.3185 33.5846C28.2247 33.2344 28.7244 33.2115 29.6208 33.6344C29.0343 34.2933 28.6861 35.1584 28.6861 36.0907V39.7433C28.6861 40.7134 29.4748 41.5032 30.4442 41.5039H30.4466C31.419 41.5039 32.3334 41.1253 33.0212 40.4379C33.4222 40.0372 33.7182 39.5594 33.8956 39.0379C34.9592 39.6678 43.7472 44.8717 44.766 45.4754C45.0223 45.6272 45.2041 45.8697 45.2779 46.1582C45.3517 46.4464 45.3087 46.7464 45.1569 47.0027ZM51.1319 41.3875L49.434 42.3934C48.6877 42.8353 47.721 42.5878 47.2791 41.8418L44.683 37.4597C44.451 37.0683 43.9455 36.9391 43.5544 37.1708C43.1629 37.4026 43.0336 37.9079 43.2654 38.2994L45.8615 42.6816C45.9104 42.7641 45.9635 42.8425 46.0184 42.919L45.2966 43.3406C45.1507 43.427 45.0104 43.5222 44.8762 43.6255L33.6846 36.9979C33.1363 36.6734 32.4411 37.069 32.4411 37.7067C32.4325 37.7559 32.5262 38.6027 31.8565 39.2722C31.4798 39.6485 30.9791 39.8559 30.4465 39.8559C30.4461 39.8559 30.4457 39.8559 30.4452 39.8559C30.3836 39.8559 30.3336 39.8052 30.3336 39.7428V36.0902C30.3336 35.1361 30.99 34.3311 31.8778 34.1063L34.6139 33.4138C35.6067 33.1629 36.1679 33.6931 37.6545 34.1962C38.6864 34.5954 39.8085 34.5708 40.8045 34.1454L41.3017 34.9848C41.5337 35.3765 42.039 35.5055 42.4303 35.2738C42.8218 35.0419 42.951 34.5366 42.7193 34.1451L41.7399 32.4921C41.2969 31.7442 41.5437 30.7804 42.2915 30.3371L43.9892 29.3314C44.0634 29.2873 44.1615 29.3099 44.2074 29.3873L51.1875 41.1693C51.2326 41.2453 51.2078 41.3425 51.1319 41.3875Z" fill="#E92D45"/>
</svg>
