<svg width="52" height="46" viewBox="0 0 52 46" fill="none" xmlns="http://www.w3.org/2000/svg">
<path d="M29.0137 10.7363C30.34 10.7363 31.5537 10.2484 32.4877 9.44425C33.4407 10.24 34.648 10.6855 35.903 10.6855C37.2011 10.6855 38.3919 10.2188 39.3176 9.44486C40.2791 10.272 41.5091 10.7363 42.7922 10.7363C45.7324 10.7363 48.1243 8.34443 48.1243 5.4043C48.1243 2.46416 45.7324 0.0722656 42.7922 0.0722656C41.5373 0.0722656 40.33 0.517922 39.377 1.31366C38.443 0.509391 37.2293 0.0214844 35.903 0.0214844C34.6198 0.0214844 33.3898 0.485828 32.4283 1.31295C31.5026 0.539047 30.3118 0.0722656 29.0137 0.0722656C26.0735 0.0722656 23.6816 2.46416 23.6816 5.4043C23.6816 8.34443 26.0735 10.7363 29.0137 10.7363ZM46.6008 5.4043C46.6008 7.50441 44.8923 9.21289 42.7922 9.21289C41.8874 9.21289 41.0192 8.88962 40.3361 8.31244C40.9034 7.4652 41.235 6.44745 41.235 5.35352C41.235 4.28772 40.9194 3.29474 40.3786 2.46081C41.0554 1.90557 41.9076 1.5957 42.7923 1.5957C44.8923 1.5957 46.6008 3.30419 46.6008 5.4043ZM39.7114 5.35352C39.7114 7.45362 38.003 9.16211 35.9029 9.16211C35.0182 9.16211 34.166 8.85214 33.4892 8.297C34.03 7.46307 34.3456 6.47009 34.3456 5.4043C34.3456 4.31037 34.014 3.29251 33.4467 2.44527C34.1298 1.86809 34.9979 1.54492 35.9029 1.54492C38.003 1.54492 39.7114 3.25341 39.7114 5.35352ZM29.0137 1.5957C31.1138 1.5957 32.8223 3.30419 32.8223 5.4043C32.8223 7.50441 31.1138 9.21289 29.0137 9.21289C26.9136 9.21289 25.2051 7.50441 25.2051 5.4043C25.2051 3.30419 26.9136 1.5957 29.0137 1.5957Z" fill="#E92D45"/>
<path d="M48.1914 12.2598H23.6812C21.581 12.2598 19.8726 13.9683 19.8726 16.0684V28.46C19.8726 29.7201 20.8976 30.7452 22.1577 30.7452C22.4247 30.7452 22.6811 30.6986 22.9194 30.6141V43.2955C22.9194 44.7749 24.1231 45.9785 25.6024 45.9785C27.0818 45.9785 28.2854 44.7749 28.2854 43.2955V29.2217H29.8088V43.2955C29.8088 44.7749 31.0124 45.9785 32.4918 45.9785C33.9712 45.9785 35.1748 44.7749 35.1748 43.2955V30.622C35.4121 30.7016 35.6682 30.7452 35.9365 30.7452C36.2049 30.7452 36.4609 30.7016 36.6982 30.622V43.2447C36.6982 44.724 37.9017 45.9276 39.3811 45.9276C40.8605 45.9276 42.0641 44.724 42.0641 43.2447V30.622C42.3014 30.7016 42.5575 30.7452 42.8258 30.7452C43.0942 30.7452 43.3502 30.7016 43.5875 30.622V43.2954C43.5875 44.7748 44.7911 45.9784 46.2705 45.9784C47.7498 45.9784 48.9535 44.7748 48.9535 43.2954V30.622C49.1908 30.7016 49.4469 30.7452 49.7152 30.7452C50.9966 30.7452 52.0003 29.7637 52.0003 28.5108V16.0684C52 13.9683 50.2915 12.2598 48.1914 12.2598ZM35.9363 29.2217C35.502 29.2217 35.1746 28.9161 35.1746 28.5108V16.0683C35.1746 15.6476 34.8335 15.3065 34.4129 15.3065C33.9922 15.3065 33.6511 15.6476 33.6511 16.0683V43.2954C33.6511 43.9348 33.1309 44.455 32.4916 44.455C31.8523 44.455 31.3321 43.9348 31.3321 43.2954V28.46C31.3321 28.0393 30.991 27.6983 30.5703 27.6983H27.5235C27.1028 27.6983 26.7617 28.0393 26.7617 28.46V43.2955C26.7617 43.9349 26.2415 44.4551 25.6022 44.4551C24.9629 44.4551 24.4427 43.9349 24.4427 43.2955V16.0684C24.4427 15.6477 24.1016 15.3066 23.6809 15.3066C23.2603 15.3066 22.9192 15.6477 22.9192 16.0684V28.46C22.9192 28.8801 22.5776 29.2217 22.1575 29.2217C21.7374 29.2217 21.3958 28.8801 21.3958 28.46V16.0684C21.3958 14.8083 22.4209 13.7832 23.6809 13.7832H34.4128C35.6728 13.7832 36.6979 14.8083 36.6979 16.0684V28.5108C36.698 28.9161 36.3706 29.2217 35.9363 29.2217ZM42.8256 29.2217C42.3913 29.2217 42.0639 28.9161 42.0639 28.5108V16.0175C42.0639 15.5968 41.7228 15.2558 41.3021 15.2558C40.8815 15.2558 40.5404 15.5968 40.5404 16.0175V43.2447C40.5404 43.884 40.0202 44.4042 39.3809 44.4042C38.7417 44.4042 38.2215 43.884 38.2215 43.2447V16.0684C38.2215 15.2116 37.937 14.4202 37.4577 13.7832H41.3021C42.5622 13.7832 43.5873 14.8083 43.5873 16.0684V28.5108C43.5873 28.9161 43.2598 29.2217 42.8256 29.2217ZM50.4766 28.5108C50.4766 28.9161 50.1492 29.2217 49.7149 29.2217C49.2806 29.2217 48.9532 28.9161 48.9532 28.5108V16.0683C48.9532 15.6476 48.6121 15.3065 48.1914 15.3065C47.7708 15.3065 47.4297 15.6476 47.4297 16.0683V43.2954C47.4297 43.9348 46.9095 44.455 46.2702 44.455C45.6308 44.455 45.1106 43.9348 45.1106 43.2954V16.0684C45.1106 15.2116 44.8262 14.4202 44.3469 13.7832H48.1914C49.4515 13.7832 50.4766 14.8083 50.4766 16.0684V28.5108Z" fill="#E92D45"/>
<path d="M3.80859 15.3066C3.38792 15.3066 3.04688 15.6477 3.04688 16.0684V17.5918C3.04688 18.0125 3.38792 18.3535 3.80859 18.3535C4.22927 18.3535 4.57031 18.0125 4.57031 17.5918V16.0684C4.57031 15.6476 4.22927 15.3066 3.80859 15.3066Z" fill="#E92D45"/>
<path d="M14.5404 12.2598H3.80859C1.70848 12.2598 0 13.9683 0 16.0684V28.46C0 29.7201 1.02507 30.7452 2.28516 30.7452C2.55216 30.7452 2.80851 30.6986 3.04688 30.6141V43.2955C3.04688 44.7749 4.25049 45.9785 5.72985 45.9785C7.20921 45.9785 8.41283 44.7749 8.41283 43.2955V29.2217H9.93627V43.2955C9.93627 44.7749 11.1399 45.9785 12.6192 45.9785C14.0986 45.9785 15.3022 44.7749 15.3022 43.2955V30.622C15.5396 30.7016 15.7956 30.7452 16.0639 30.7452C17.3454 30.7452 18.3491 29.7637 18.3491 28.5108V16.0684C18.349 13.9683 16.6404 12.2598 14.5404 12.2598ZM16.8256 28.5108C16.8256 28.9161 16.4981 29.2217 16.0638 29.2217C15.6296 29.2217 15.3021 28.9161 15.3021 28.5108V16.0683C15.3021 15.6476 14.9611 15.3065 14.5404 15.3065C14.1197 15.3065 13.7787 15.6476 13.7787 16.0683V43.2954C13.7787 43.9348 13.2585 44.455 12.6191 44.455C11.9798 44.455 11.4596 43.9348 11.4596 43.2954V28.46C11.4596 28.0393 11.1186 27.6983 10.6979 27.6983H7.65101C7.23034 27.6983 6.88929 28.0393 6.88929 28.46V43.2955C6.88929 43.9349 6.36909 44.4551 5.72975 44.4551C5.09041 44.4551 4.57031 43.9349 4.57031 43.2955V20.6387C4.57031 20.218 4.22927 19.877 3.80859 19.877C3.38792 19.877 3.04688 20.218 3.04688 20.6387V28.4601C3.04688 28.8802 2.70512 29.2218 2.28516 29.2218C1.86509 29.2218 1.52344 28.8802 1.52344 28.4601V16.0684C1.52344 14.8083 2.54851 13.7832 3.80859 13.7832H14.5404C15.8005 13.7832 16.8256 14.8083 16.8256 16.0684V28.5108Z" fill="#E92D45"/>
<path d="M6.85596 4.51198V8.45107C6.85596 9.71116 7.88103 10.7362 9.14111 10.7362C10.4012 10.7362 11.4263 9.71116 11.4263 8.45107V2.35733C11.4263 1.09724 10.4012 0.0721741 9.14111 0.0721741H7.61767C6.35759 0.0721741 5.33252 1.09724 5.33252 2.35733C5.33252 3.35051 5.96932 4.19764 6.85596 4.51198ZM7.61767 1.59571H9.14111C9.56117 1.59571 9.90283 1.93737 9.90283 2.35743V8.45118C9.90283 8.87124 9.56117 9.21289 9.14111 9.21289C8.72105 9.21289 8.37939 8.87124 8.37939 8.45118V3.88087C8.37939 3.4602 8.03835 3.11915 7.61767 3.11915C7.19761 3.11915 6.85596 2.77749 6.85596 2.35743C6.85596 1.93737 7.19771 1.59571 7.61767 1.59571Z" fill="#E92D45"/>
</svg>
