<svg width="66" height="66" viewBox="0 0 66 66" fill="none" xmlns="http://www.w3.org/2000/svg">
<g clip-path="url(#clip0)">
<path d="M58.0449 57.1606H54.4545C54.4922 56.8701 54.5092 56.5736 54.5092 56.2767C54.5092 53.7817 53.0734 51.658 50.9735 50.6746V20.9196C50.9735 20.3892 50.62 20.0357 50.0896 20.0357H36.8307V6.77675C36.8307 6.24639 36.4772 5.89285 35.9468 5.89285H12.0807C11.5502 5.89275 11.1966 6.24629 11.1966 6.77664V57.1606H6.77696C6.2466 57.1606 5.89307 57.5141 5.89307 58.0445C5.89307 58.5748 6.2466 58.9285 6.77696 58.9285H12.0805H14.7323H35.9466H53.36H58.0449C58.5752 58.9285 58.9288 58.5749 58.9288 58.0446C58.9288 57.5142 58.5752 57.1606 58.0449 57.1606ZM49.2055 50.1516C48.917 50.1113 48.6222 50.0891 48.3216 50.0891C47.6543 50.0891 46.9998 50.2027 46.3814 50.4152C46.2273 50.2099 45.9791 50.0891 45.6699 50.0891C45.1395 50.0891 44.786 50.4426 44.786 50.973V51.2439C44.451 51.4852 44.1395 51.7606 43.8568 52.0667C43.8122 52.1139 43.7682 52.1617 43.7252 52.2104C42.9928 51.2948 42.0493 50.6325 40.9826 50.3101C40.8294 50.1695 40.6182 50.089 40.3663 50.089C40.2678 50.089 40.1754 50.1013 40.0901 50.1246C39.8905 50.1013 39.6878 50.089 39.4824 50.089C38.9284 50.089 38.3046 50.1609 37.7992 50.3661C37.7367 50.3872 37.6745 50.409 37.613 50.4323C37.0021 49.9357 36.2877 49.5782 35.5348 49.3815C35.5269 49.3793 35.5187 49.3778 35.5108 49.3756C35.4451 49.3587 35.3793 49.3427 35.3131 49.3283C35.2594 49.3165 35.2051 49.3062 35.151 49.2961C35.1274 49.2917 35.1039 49.287 35.0803 49.283C35.0234 49.2732 34.9664 49.2645 34.9089 49.2565C34.8832 49.2529 34.8575 49.2497 34.8317 49.2464C34.779 49.2399 34.7261 49.2338 34.6728 49.2289C34.634 49.2253 34.595 49.2226 34.5561 49.2198C34.5144 49.2169 34.4729 49.2135 34.4309 49.2115C34.3469 49.2075 34.2629 49.205 34.1788 49.205C34.1138 49.205 34.0492 49.2064 33.985 49.2087C33.943 49.2102 33.901 49.2128 33.859 49.2152C33.8423 49.2162 33.8253 49.2169 33.8085 49.2181C33.0032 49.2715 32.212 49.4988 31.5269 49.9013V21.8035H35.9466H49.2055V50.1516ZM12.9645 7.66064H35.0627V20.0357H30.643C30.1127 20.0357 29.7591 20.3892 29.7591 20.9196V48.4098C29.3074 47.958 28.7867 47.5759 28.2198 47.2769C28.1697 47.2501 28.1192 47.2242 28.0684 47.199C28.0484 47.1891 28.0286 47.1789 28.0085 47.1692C27.3777 46.8633 26.6912 46.6625 25.9739 46.5874C25.9639 46.5864 25.9537 46.5855 25.9436 46.5845C25.8603 46.5762 25.7766 46.5697 25.6925 46.5648C25.6702 46.5635 25.6479 46.5621 25.6256 46.561C25.5306 46.5565 25.4353 46.5535 25.3395 46.5535C24.0239 46.5535 22.8051 46.9862 21.8038 47.7134V47.4375C21.8038 46.9072 21.4502 46.5536 20.9199 46.5536C20.3895 46.5536 20.036 46.9072 20.036 47.4375V49.2054C20.036 49.338 20.0581 49.4595 20.0995 49.5672C19.6655 50.2825 19.3664 51.0888 19.2405 51.9457C18.2228 52.062 17.2923 52.4282 16.5003 52.9756V52.7412C16.5003 52.2108 16.1468 51.8573 15.6164 51.8573C15.0861 51.8573 14.7325 52.2108 14.7325 52.7412V54.5091C14.7325 54.6123 14.7463 54.7085 14.7718 54.797C14.3335 55.5058 14.0353 56.3079 13.9124 57.1608H12.9647V7.66064H12.9645ZM19.6337 53.6432C19.6512 53.6417 19.6689 53.6406 19.6865 53.6393C19.7331 53.6357 19.7797 53.6321 19.8268 53.63C19.896 53.6269 19.9658 53.6248 20.036 53.6248C20.5663 53.6248 20.9199 53.2712 20.9199 52.7409C20.9199 50.2659 22.8645 48.3212 25.3396 48.3212C27.5494 48.3212 29.4056 49.9123 29.6708 52.1221C29.7305 52.3611 29.8725 52.5582 30.0666 52.6891C30.0788 52.6977 30.0913 52.7058 30.1041 52.7138C30.1178 52.7221 30.1313 52.7306 30.1455 52.7383C30.1781 52.7563 30.2121 52.7728 30.2475 52.787C30.2489 52.7875 30.2501 52.788 30.2515 52.7886C30.292 52.8048 30.3342 52.8184 30.3779 52.8293C30.378 52.8293 30.378 52.8293 30.3781 52.8294C30.4307 52.8469 30.4905 52.8536 30.5536 52.8516C30.8442 52.8559 31.1144 52.697 31.2619 52.476C31.2619 52.4759 31.262 52.4759 31.2621 52.4758L31.3504 52.3875C32.0576 51.5036 33.0298 50.9732 34.179 50.9732C34.7759 50.9732 35.3724 51.1404 35.9079 51.453C34.8535 52.4444 34.2556 53.7369 34.1861 55.1197C34.1814 55.2102 34.179 55.3013 34.179 55.3929C34.179 56.0076 34.2813 56.5966 34.4836 57.1608H15.7047C16.1184 55.2576 17.6939 53.8194 19.6337 53.6432ZM36.5703 57.1606C36.2326 56.5894 36.0351 55.9141 36.0351 55.3043C36.0351 54.3269 36.4204 53.4463 37.0827 52.8026C37.2093 52.6853 37.3443 52.5769 37.4868 52.4788C37.6249 52.4799 37.7638 52.4511 37.8913 52.3874C39.8359 51.3266 42.1342 52.299 42.8414 54.2436C42.9297 54.5088 43.1949 54.774 43.6369 54.774C43.7208 54.774 43.8136 54.7472 43.9068 54.6998C44.1286 54.6634 44.304 54.5006 44.4324 54.2436C44.775 53.5157 45.3053 52.9346 45.9509 52.5272C46.0902 52.4884 46.2098 52.4196 46.305 52.3262C46.9122 52.0211 47.6004 51.857 48.3217 51.857C50.7967 51.857 52.7414 53.8016 52.7414 56.2767C52.7414 56.5419 52.7414 56.8954 52.6531 57.1606H36.5703Z" fill="#E92D45"/>
<path d="M35.0621 28.875C34.5318 28.875 34.1782 29.2286 34.1782 29.7589V31.5268C34.1782 32.0572 34.5318 32.4107 35.0621 32.4107C35.5925 32.4107 35.946 32.0572 35.946 31.5268V29.7589C35.946 29.2286 35.5925 28.875 35.0621 28.875Z" fill="#E92D45"/>
<path d="M35.0621 44.7857C34.5318 44.7857 34.1782 45.1392 34.1782 45.6696V47.4375C34.1782 47.9678 34.5318 48.3214 35.0621 48.3214C35.5925 48.3214 35.946 47.9678 35.946 47.4375V45.6696C35.946 45.1392 35.5925 44.7857 35.0621 44.7857Z" fill="#E92D45"/>
<path d="M35.0621 34.1786C34.5318 34.1786 34.1782 34.5321 34.1782 35.0625V36.8303C34.1782 37.3607 34.5318 37.7142 35.0621 37.7142C35.5925 37.7142 35.946 37.3607 35.946 36.8303V35.0625C35.946 34.5321 35.5925 34.1786 35.0621 34.1786Z" fill="#E92D45"/>
<path d="M35.0621 39.4822C34.5318 39.4822 34.1782 39.8357 34.1782 40.3661V42.134C34.1782 42.6644 34.5318 43.0179 35.0621 43.0179C35.5925 43.0179 35.946 42.6644 35.946 42.134V40.3661C35.946 39.8357 35.5925 39.4822 35.0621 39.4822Z" fill="#E92D45"/>
<path d="M35.0621 23.5715C34.5318 23.5715 34.1782 23.925 34.1782 24.4554V26.2233C34.1782 26.7536 34.5318 27.1071 35.0621 27.1071C35.5925 27.1071 35.946 26.7536 35.946 26.2233V24.4554C35.946 23.925 35.5925 23.5715 35.0621 23.5715Z" fill="#E92D45"/>
<path d="M40.3668 32.4107C40.8972 32.4107 41.2507 32.0572 41.2507 31.5268V29.7589C41.2507 29.2286 40.8972 28.875 40.3668 28.875C39.8364 28.875 39.4829 29.2286 39.4829 29.7589V31.5268C39.4829 32.0572 39.8364 32.4107 40.3668 32.4107Z" fill="#E92D45"/>
<path d="M40.3668 27.1071C40.8972 27.1071 41.2507 26.7536 41.2507 26.2233V24.4554C41.2507 23.925 40.8972 23.5715 40.3668 23.5715C39.8364 23.5715 39.4829 23.925 39.4829 24.4554V26.2233C39.4829 26.7536 39.8364 27.1071 40.3668 27.1071Z" fill="#E92D45"/>
<path d="M40.3668 37.7142C40.8972 37.7142 41.2507 37.3607 41.2507 36.8303V35.0625C41.2507 34.5321 40.8972 34.1786 40.3668 34.1786C39.8364 34.1786 39.4829 34.5321 39.4829 35.0625V36.8303C39.4829 37.3607 39.8364 37.7142 40.3668 37.7142Z" fill="#E92D45"/>
<path d="M40.3668 43.0179C40.8972 43.0179 41.2507 42.6644 41.2507 42.134V40.3661C41.2507 39.8357 40.8972 39.4822 40.3668 39.4822C39.8364 39.4822 39.4829 39.8357 39.4829 40.3661V42.134C39.4829 42.6644 39.8364 43.0179 40.3668 43.0179Z" fill="#E92D45"/>
<path d="M40.3668 48.3214C40.8972 48.3214 41.2507 47.9678 41.2507 47.4375V45.6696C41.2507 45.1392 40.8972 44.7857 40.3668 44.7857C39.8364 44.7857 39.4829 45.1392 39.4829 45.6696V47.4375C39.4829 47.9678 39.8364 48.3214 40.3668 48.3214Z" fill="#E92D45"/>
<path d="M45.67 37.7142C46.2004 37.7142 46.5539 37.3607 46.5539 36.8303V35.0625C46.5539 34.5321 46.2004 34.1786 45.67 34.1786C45.1397 34.1786 44.7861 34.5321 44.7861 35.0625V36.8303C44.7861 37.3607 45.1397 37.7142 45.67 37.7142Z" fill="#E92D45"/>
<path d="M45.67 32.4107C46.2004 32.4107 46.5539 32.0572 46.5539 31.5268V29.7589C46.5539 29.2286 46.2004 28.875 45.67 28.875C45.1397 28.875 44.7861 29.2286 44.7861 29.7589V31.5268C44.7861 32.0572 45.1397 32.4107 45.67 32.4107Z" fill="#E92D45"/>
<path d="M45.67 48.3214C46.2004 48.3214 46.5539 47.9678 46.5539 47.4375V45.6696C46.5539 45.1392 46.2004 44.7857 45.67 44.7857C45.1397 44.7857 44.7861 45.1392 44.7861 45.6696V47.4375C44.7861 47.9678 45.1397 48.3214 45.67 48.3214Z" fill="#E92D45"/>
<path d="M45.67 43.0179C46.2004 43.0179 46.5539 42.6644 46.5539 42.134V40.3661C46.5539 39.8357 46.2004 39.4822 45.67 39.4822C45.1397 39.4822 44.7861 39.8357 44.7861 40.3661V42.134C44.7861 42.6644 45.1397 43.0179 45.67 43.0179Z" fill="#E92D45"/>
<path d="M45.67 27.1071C46.2004 27.1071 46.5539 26.7536 46.5539 26.2233V24.4554C46.5539 23.925 46.2004 23.5715 45.67 23.5715C45.1397 23.5715 44.7861 23.925 44.7861 24.4554V26.2233C44.7861 26.7536 45.1397 27.1071 45.67 27.1071Z" fill="#E92D45"/>
<path d="M15.6163 39.4821C16.1467 39.4821 16.5002 39.1286 16.5002 38.5982V36.8303C16.5002 36.3 16.1467 35.9465 15.6163 35.9465C15.086 35.9465 14.7324 36.3 14.7324 36.8303V38.5982C14.7323 39.1285 15.086 39.4821 15.6163 39.4821Z" fill="#E92D45"/>
<path d="M15.6163 44.7858C16.1467 44.7858 16.5002 44.4322 16.5002 43.9019V42.134C16.5002 41.6036 16.1467 41.2501 15.6163 41.2501C15.086 41.2501 14.7324 41.6036 14.7324 42.134V43.9019C14.7323 44.4321 15.086 44.7858 15.6163 44.7858Z" fill="#E92D45"/>
<path d="M15.6163 50.0893C16.1467 50.0893 16.5002 49.7358 16.5002 49.2054V47.4375C16.5002 46.9072 16.1467 46.5536 15.6163 46.5536C15.086 46.5536 14.7324 46.9072 14.7324 47.4375V49.2054C14.7323 49.7357 15.086 50.0893 15.6163 50.0893Z" fill="#E92D45"/>
<path d="M15.6163 12.9643C16.1467 12.9643 16.5002 12.6108 16.5002 12.0804V10.3125C16.5002 9.78217 16.1467 9.42863 15.6163 9.42863C15.086 9.42863 14.7324 9.78217 14.7324 10.3125V12.0804C14.7323 12.6107 15.086 12.9643 15.6163 12.9643Z" fill="#E92D45"/>
<path d="M15.6163 18.2679C16.1467 18.2679 16.5002 17.9143 16.5002 17.384V15.6161C16.5002 15.0857 16.1467 14.7322 15.6163 14.7322C15.086 14.7322 14.7324 15.0857 14.7324 15.6161V17.384C14.7323 17.9142 15.086 18.2679 15.6163 18.2679Z" fill="#E92D45"/>
<path d="M15.6163 23.5715C16.1467 23.5715 16.5002 23.2179 16.5002 22.6876V20.9197C16.5002 20.3893 16.1467 20.0358 15.6163 20.0358C15.086 20.0358 14.7324 20.3893 14.7324 20.9197V22.6876C14.7323 23.2178 15.086 23.5715 15.6163 23.5715Z" fill="#E92D45"/>
<path d="M15.6163 28.875C16.1467 28.875 16.5002 28.5215 16.5002 27.9911V26.2232C16.5002 25.6929 16.1467 25.3393 15.6163 25.3393C15.086 25.3393 14.7324 25.6929 14.7324 26.2232V27.9911C14.7323 28.5214 15.086 28.875 15.6163 28.875Z" fill="#E92D45"/>
<path d="M15.6163 34.1786C16.1467 34.1786 16.5002 33.825 16.5002 33.2947V31.5268C16.5002 30.9964 16.1467 30.6429 15.6163 30.6429C15.086 30.6429 14.7324 30.9964 14.7324 31.5268V33.2947C14.7323 33.8249 15.086 34.1786 15.6163 34.1786Z" fill="#E92D45"/>
<path d="M20.9195 18.2679C21.4499 18.2679 21.8034 17.9143 21.8034 17.384V15.6161C21.8034 15.0857 21.4499 14.7322 20.9195 14.7322C20.3892 14.7322 20.0356 15.0857 20.0356 15.6161V17.384C20.0355 17.9142 20.3892 18.2679 20.9195 18.2679Z" fill="#E92D45"/>
<path d="M20.9195 12.9643C21.4499 12.9643 21.8034 12.6108 21.8034 12.0804V10.3125C21.8034 9.78217 21.4499 9.42863 20.9195 9.42863C20.3892 9.42863 20.0356 9.78217 20.0356 10.3125V12.0804C20.0355 12.6107 20.3892 12.9643 20.9195 12.9643Z" fill="#E92D45"/>
<path d="M20.9195 28.875C21.4499 28.875 21.8034 28.5215 21.8034 27.9911V26.2232C21.8034 25.6929 21.4499 25.3393 20.9195 25.3393C20.3892 25.3393 20.0356 25.6929 20.0356 26.2232V27.9911C20.0355 28.5214 20.3892 28.875 20.9195 28.875Z" fill="#E92D45"/>
<path d="M20.9195 23.5715C21.4499 23.5715 21.8034 23.2179 21.8034 22.6876V20.9197C21.8034 20.3893 21.4499 20.0358 20.9195 20.0358C20.3892 20.0358 20.0356 20.3893 20.0356 20.9197V22.6876C20.0355 23.2178 20.3892 23.5715 20.9195 23.5715Z" fill="#E92D45"/>
<path d="M20.9195 34.1786C21.4499 34.1786 21.8034 33.825 21.8034 33.2947V31.5268C21.8034 30.9964 21.4499 30.6429 20.9195 30.6429C20.3892 30.6429 20.0356 30.9964 20.0356 31.5268V33.2947C20.0355 33.8249 20.3892 34.1786 20.9195 34.1786Z" fill="#E92D45"/>
<path d="M20.9195 39.4821C21.4499 39.4821 21.8034 39.1286 21.8034 38.5982V36.8303C21.8034 36.3 21.4499 35.9465 20.9195 35.9465C20.3892 35.9465 20.0356 36.3 20.0356 36.8303V38.5982C20.0355 39.1285 20.3892 39.4821 20.9195 39.4821Z" fill="#E92D45"/>
<path d="M20.9195 44.7858C21.4499 44.7858 21.8034 44.4322 21.8034 43.9019V42.134C21.8034 41.6036 21.4499 41.2501 20.9195 41.2501C20.3892 41.2501 20.0356 41.6036 20.0356 42.134V43.9019C20.0355 44.4321 20.3892 44.7858 20.9195 44.7858Z" fill="#E92D45"/>
<path d="M26.2233 23.5715C26.7536 23.5715 27.1071 23.2179 27.1071 22.6876V20.9197C27.1071 20.3893 26.7536 20.0358 26.2233 20.0358C25.6929 20.0358 25.3394 20.3893 25.3394 20.9197V22.6876C25.3393 23.2178 25.6929 23.5715 26.2233 23.5715Z" fill="#E92D45"/>
<path d="M26.2233 18.2679C26.7536 18.2679 27.1071 17.9143 27.1071 17.384V15.6161C27.1071 15.0857 26.7536 14.7322 26.2233 14.7322C25.6929 14.7322 25.3394 15.0857 25.3394 15.6161V17.384C25.3393 17.9142 25.6929 18.2679 26.2233 18.2679Z" fill="#E92D45"/>
<path d="M26.2233 12.9643C26.7536 12.9643 27.1071 12.6108 27.1071 12.0804V10.3125C27.1071 9.78217 26.7536 9.42863 26.2233 9.42863C25.6929 9.42863 25.3394 9.78217 25.3394 10.3125V12.0804C25.3393 12.6107 25.6929 12.9643 26.2233 12.9643Z" fill="#E92D45"/>
<path d="M26.2233 44.7858C26.7536 44.7858 27.1071 44.4322 27.1071 43.9019V42.134C27.1071 41.6036 26.7536 41.2501 26.2233 41.2501C25.6929 41.2501 25.3394 41.6036 25.3394 42.134V43.9019C25.3393 44.4321 25.6929 44.7858 26.2233 44.7858Z" fill="#E92D45"/>
<path d="M26.2233 39.4821C26.7536 39.4821 27.1071 39.1286 27.1071 38.5982V36.8303C27.1071 36.3 26.7536 35.9465 26.2233 35.9465C25.6929 35.9465 25.3394 36.3 25.3394 36.8303V38.5982C25.3393 39.1285 25.6929 39.4821 26.2233 39.4821Z" fill="#E92D45"/>
<path d="M26.2233 34.1786C26.7536 34.1786 27.1071 33.825 27.1071 33.2947V31.5268C27.1071 30.9964 26.7536 30.6429 26.2233 30.6429C25.6929 30.6429 25.3394 30.9964 25.3394 31.5268V33.2947C25.3393 33.8249 25.6929 34.1786 26.2233 34.1786Z" fill="#E92D45"/>
<path d="M26.2233 28.875C26.7536 28.875 27.1071 28.5215 27.1071 27.9911V26.2232C27.1071 25.6929 26.7536 25.3393 26.2233 25.3393C25.6929 25.3393 25.3394 25.6929 25.3394 26.2232V27.9911C25.3393 28.5214 25.6929 28.875 26.2233 28.875Z" fill="#E92D45"/>
<path d="M31.5274 18.2679C32.0578 18.2679 32.4113 17.9143 32.4113 17.384V15.6161C32.4113 15.0857 32.0578 14.7322 31.5274 14.7322C30.9971 14.7322 30.6436 15.0857 30.6436 15.6161V17.384C30.6435 17.9142 30.9971 18.2679 31.5274 18.2679Z" fill="#E92D45"/>
<path d="M31.5274 12.9643C32.0578 12.9643 32.4113 12.6108 32.4113 12.0804V10.3125C32.4113 9.78217 32.0578 9.42863 31.5274 9.42863C30.9971 9.42863 30.6436 9.78217 30.6436 10.3125V12.0804C30.6435 12.6107 30.9971 12.9643 31.5274 12.9643Z" fill="#E92D45"/>
</g>
<defs>
<clipPath id="clip0">
<rect width="53.0357" height="53.0357" fill="white" transform="translate(5.89307 5.89285)"/>
</clipPath>
</defs>
</svg>
