<svg width="14" height="9" viewBox="0 0 14 9" fill="none" xmlns="http://www.w3.org/2000/svg">
<path d="M13.3973 1.71429C13.3973 1.82143 13.3438 1.94196 13.2634 2.02232L7.02232 8.26339C6.94196 8.34375 6.82143 8.39732 6.71429 8.39732C6.60714 8.39732 6.48661 8.34375 6.40625 8.26339L0.165179 2.02232C0.0848215 1.94196 0.0312501 1.82143 0.0312501 1.71429C0.0312501 1.60714 0.0848215 1.48661 0.165179 1.40625L0.834822 0.736607C0.915179 0.65625 1.03571 0.602679 1.14286 0.602679C1.25 0.602679 1.37054 0.65625 1.45089 0.736607L6.71429 6L11.9777 0.736607C12.058 0.65625 12.1786 0.602679 12.2857 0.602679C12.4062 0.602679 12.5134 0.65625 12.5938 0.736607L13.2634 1.40625C13.3438 1.48661 13.3973 1.60714 13.3973 1.71429Z" fill="#333333"/>
</svg>
