<svg width="10" height="6" viewBox="0 0 10 6" fill="none" xmlns="http://www.w3.org/2000/svg">
<path d="M9.59822 0.857282C9.59822 0.785854 9.5625 0.705497 9.50893 0.651925L9.0625 0.205497C9.00893 0.151925 8.92857 0.116211 8.85714 0.116211C8.78572 0.116211 8.70536 0.151925 8.65179 0.205497L5.14286 3.71443L1.63393 0.205497C1.58036 0.151925 1.5 0.116211 1.42857 0.116211C1.34821 0.116211 1.27679 0.151925 1.22321 0.205497L0.776786 0.651925C0.723214 0.705497 0.6875 0.785854 0.6875 0.857282C0.6875 0.928711 0.723214 1.00907 0.776786 1.06264L4.9375 5.22335C4.99107 5.27693 5.07143 5.31264 5.14286 5.31264C5.21429 5.31264 5.29464 5.27693 5.34821 5.22335L9.50893 1.06264C9.5625 1.00907 9.59822 0.928711 9.59822 0.857282Z" fill="#E92D45"/>
</svg>
