<svg width="106" height="52" viewBox="0 0 106 52" fill="none" xmlns="http://www.w3.org/2000/svg">
<path d="M83.8461 32.7902C80.062 32.7902 76.9834 35.869 76.9834 39.6531C76.9834 43.4372 80.062 46.5159 83.8461 46.5159C87.6302 46.5159 90.7089 43.4372 90.7089 39.6531C90.7092 35.869 87.6304 32.7902 83.8461 32.7902ZM83.8461 43.4105C81.7743 43.4105 80.0889 41.7248 80.0889 39.6531C80.0889 37.5811 81.7745 35.8957 83.8461 35.8957C85.918 35.8957 87.6035 37.5813 87.6035 39.6531C87.6037 41.725 85.918 43.4105 83.8461 43.4105Z" fill="#E92D45"/>
<path d="M17.6588 32.7902C13.8747 32.7902 10.7959 35.869 10.7959 39.6531C10.7959 43.4372 13.8747 46.5159 17.6588 46.5159C21.4429 46.5159 24.5217 43.4372 24.5217 39.6531C24.5217 35.869 21.4429 32.7902 17.6588 32.7902ZM17.6588 43.4105C15.5868 43.4105 13.9014 41.7248 13.9014 39.6531C13.9014 37.5811 15.587 35.8957 17.6588 35.8957C19.7305 35.8957 21.4162 37.5813 21.4162 39.6531C21.4162 41.725 19.7307 43.4105 17.6588 43.4105Z" fill="#E92D45"/>
<path d="M0 38.8774V40.5566C0 42.4327 1.52623 43.9589 3.40256 43.9589H6.27491C8.01811 48.5517 12.4622 51.8261 17.6587 51.8261C22.8552 51.8261 27.2996 48.5519 29.0426 43.9589H44.1875C45.0452 43.9589 45.7402 43.2637 45.7402 42.4062C45.7402 41.5487 45.0452 40.8535 44.1875 40.8535H29.7723C29.8483 40.0839 29.8496 39.3204 29.7846 38.5803H71.7202C71.656 39.3092 71.6556 40.0833 71.7326 40.8535H51.4338C50.5761 40.8535 49.8811 41.5487 49.8811 42.4062C49.8811 43.2637 50.5761 43.9589 51.4338 43.9589H72.4622C74.2054 48.5517 78.6495 51.8261 83.846 51.8261C89.0427 51.8261 93.4868 48.5519 95.23 43.9589H102.597C104.474 43.9589 106 42.4327 106 40.5566V38.8774C106 37.5302 105.211 36.3669 104.072 35.816V31.0095C104.072 26.095 100.642 21.7898 95.725 20.7874L80.3198 17.6446C80.1987 17.62 80.0789 17.5875 79.9596 17.5519C79.5025 15.7147 77.8438 14.3477 75.8672 14.3477H75.6691L70.9136 10.2524C70.2635 9.69277 69.2832 9.76586 68.7238 10.4157C68.1642 11.0656 68.2371 12.0459 68.887 12.6055L71.5109 14.865C70.773 15.2698 70.166 15.9016 69.7898 16.6221L62.5899 10.4217C60.9481 9.00771 58.9718 8.00485 56.8746 7.52143C45.0249 4.78924 31.734 5.07266 19.7075 9.1429C16.8248 10.1186 14.3363 12.0585 12.6999 14.6058C12.0579 15.6054 12.2523 16.9494 13.1512 17.7324L19.5247 23.2842C19.9653 23.6684 20.53 23.88 21.1153 23.88H70.5459C71.3334 24.6705 72.399 25.1236 73.5348 25.1236H75.8678C78.1893 25.1236 80.0894 23.2359 80.0894 20.9021V20.7673L93.6912 23.5421V28.0536C93.6912 30.4247 95.6203 32.3538 97.9914 32.3538H100.967V35.4754H95.2837C93.5355 30.6723 88.9572 27.4805 83.8466 27.4805C78.7572 27.4805 74.1648 30.6537 72.4098 35.4754H29.0956C27.3381 30.6462 22.7397 27.4805 17.6587 27.4805C12.5767 27.4805 7.97898 30.6472 6.22191 35.4754H4.58843L4.21309 34.0995C3.99446 33.2979 3.8837 32.4701 3.8837 31.6393V30.5862H5.44451C7.77216 30.5862 9.66587 28.6924 9.66587 26.3646V24.9963C9.66587 22.7883 7.96139 20.9741 5.79957 20.7928L10.641 13.2692C12.5769 10.2609 15.5174 7.96965 18.9204 6.81794C35.0767 1.34983 49.9798 3.4131 57.4255 5.1296C59.6138 5.63434 61.6349 6.58254 63.4321 7.94791C64.1151 8.46694 65.0892 8.33361 65.6078 7.65103C66.1266 6.96824 65.9937 5.99416 65.3107 5.47534C63.1613 3.84207 60.743 2.70775 58.123 2.10363C50.3568 0.313014 34.8078 -1.83763 17.9248 3.87644C13.8583 5.25257 10.3443 7.99139 8.0295 11.5886L2.75973 19.7779C1.47199 21.7793 0.77823 24.1272 0.77823 26.5192V29.0332V31.6391C0.77823 32.7459 0.925844 33.8486 1.21693 34.9164L1.52437 36.0433C0.606809 36.6528 0 37.6952 0 38.8774H0ZM60.5631 12.7746L69.3128 20.3095V20.7743H49.3635V9.35531C52.0452 9.68553 54.3546 10.1271 56.1769 10.5472C57.7851 10.9178 59.3016 11.6881 60.5631 12.7746ZM15.6503 15.7907C17.973 12.6051 21.0952 11.7786 25.4816 10.69L27.1919 20.7743H21.3714L15.6503 15.7907ZM30.3417 20.7743L28.5173 10.0176C37.8062 8.20525 44.8931 9.0282 46.2578 9.04394V20.7743H30.3417ZM75.8672 22.018H73.5342C72.8785 22.018 72.4181 21.4621 72.4181 20.9019C72.4181 20.0402 72.4181 19.429 72.4181 18.569C72.4181 17.9537 72.9187 17.4529 73.5342 17.4529H75.8672C76.4827 17.4529 76.9833 17.9535 76.9833 18.569V20.9019C76.9833 21.5172 76.4827 22.018 75.8672 22.018ZM83.846 48.7207C78.8069 48.7207 74.7784 44.6103 74.7784 39.6531C74.7784 34.7173 78.7928 30.5855 83.846 30.5855C88.9073 30.5855 92.9138 34.7239 92.9138 39.6531C92.9138 44.6132 88.8793 48.7207 83.846 48.7207ZM96.796 28.0531V24.4005C98.7624 25.3441 100.22 27.1316 100.749 29.2479H97.991C97.332 29.2479 96.796 28.7119 96.796 28.0531ZM102.52 38.5805H102.597C102.761 38.5805 102.894 38.7138 102.894 38.8776V40.5568C102.894 40.7206 102.761 40.8537 102.597 40.8537H95.9596C96.0385 40.0643 96.0348 39.2947 95.972 38.5805H102.52ZM17.6587 48.7207C12.6196 48.7207 8.59118 44.6103 8.59118 39.6531C8.59118 34.6597 12.6591 30.5855 17.6587 30.5855C22.6457 30.5855 26.7263 34.6469 26.7263 39.6531C26.7263 44.6254 22.6821 48.7207 17.6587 48.7207ZM5.53291 38.5805C5.46749 39.325 5.47039 40.104 5.54533 40.8537H3.40256C3.2388 40.8537 3.10547 40.7203 3.10547 40.5568V38.8774C3.10547 38.7136 3.2388 38.5803 3.40256 38.5803H5.53291V38.5805ZM6.56041 24.9957V26.364C6.56041 26.9793 6.0598 27.4801 5.44451 27.4801H3.88391C3.91186 26.9109 3.7572 25.5961 4.2636 23.8798H5.44472C6.06001 23.8798 6.56041 24.3804 6.56041 24.9957Z" fill="#E92D45"/>
<path d="M54.3712 29.7589C55.2289 29.7589 55.9239 29.0637 55.9239 28.2061C55.9239 27.3486 55.2289 26.6534 54.3712 26.6534H52.4253C51.5676 26.6534 50.8726 27.3486 50.8726 28.2061C50.8726 29.0637 51.5676 29.7589 52.4253 29.7589H54.3712Z" fill="#E92D45"/>
<path d="M34.9117 29.7589C35.7694 29.7589 36.4644 29.0637 36.4644 28.2061C36.4644 27.3486 35.7694 26.6534 34.9117 26.6534H32.9658C32.1081 26.6534 31.4131 27.3486 31.4131 28.2061C31.4131 29.0637 32.1081 29.7589 32.9658 29.7589H34.9117Z" fill="#E92D45"/>
</svg>
