<svg width="74" height="82" viewBox="0 0 74 82" fill="none" xmlns="http://www.w3.org/2000/svg">
<path d="M49.645 22.0702H10.3765C9.71021 22.0702 9.17017 22.6102 9.17017 23.2765C9.17017 23.9427 9.71021 24.4828 10.3765 24.4828H49.6452C50.3114 24.4828 50.8515 23.9427 50.8515 23.2765C50.8515 22.6102 50.3113 22.0702 49.645 22.0702Z" fill="#E92D45"/>
<path d="M10.3765 16.1151H30.0107C30.6769 16.1151 31.217 15.575 31.217 14.9088C31.217 14.2425 30.6769 13.7025 30.0107 13.7025H10.3765C9.71021 13.7025 9.17017 14.2425 9.17017 14.9088C9.17017 15.5752 9.71021 16.1151 10.3765 16.1151Z" fill="#E92D45"/>
<path d="M49.645 29.4841H10.3765C9.71021 29.4841 9.17017 30.0242 9.17017 30.6904C9.17017 31.3567 9.71021 31.8967 10.3765 31.8967H49.6452C50.3114 31.8967 50.8515 31.3567 50.8515 30.6904C50.8513 30.0242 50.3113 29.4841 49.645 29.4841Z" fill="#E92D45"/>
<path d="M19.3217 73.6187H6.75468C4.69203 73.6187 3.01375 71.9406 3.01375 69.8779V6.15336C3.01375 4.09071 4.69203 2.41243 6.75468 2.41243H42.959C43.0759 2.41243 43.191 2.42316 43.3049 2.43854V9.96172C43.3049 13.3548 46.0653 16.1151 49.4583 16.1151H56.9813C56.9968 16.2291 57.0074 16.3443 57.0074 16.4612V37.003C57.0074 37.6692 57.5474 38.2093 58.2137 38.2093C58.8799 38.2093 59.42 37.6692 59.42 37.003V16.4613C59.42 15.1381 58.9046 13.894 57.969 12.9582L46.4617 1.45102C45.5261 0.515383 44.2822 0 42.959 0H6.75468C3.36161 0 0.601318 2.76045 0.601318 6.15336V69.8779C0.601318 73.2708 3.36177 76.0311 6.75468 76.0311H19.3217C19.9879 76.0311 20.528 75.4911 20.528 74.8248C20.528 74.1586 19.9879 73.6187 19.3217 73.6187ZM55.3016 13.7026H49.4584C47.3958 13.7026 45.7175 12.0244 45.7175 9.96172V4.11858L55.3016 13.7026Z" fill="#E92D45"/>
<path d="M73.0284 59.0542L62.8076 41.8022C62.0627 40.5443 60.4416 40.1286 59.1831 40.8741L56.697 42.3471C54.7672 43.4903 53.9516 45.8037 54.6141 47.8539C53.7765 48.1574 52.8582 48.1526 52.0126 47.8257C50.0497 47.2081 48.5573 45.9658 46.0927 46.5891C41.9078 47.6546 42.035 47.6013 41.6564 47.731C39.206 46.3359 37.733 45.9208 35.1318 46.927L32.813 47.8234C31.7395 48.2382 30.5566 48.1399 29.5646 47.5521L28.9318 47.1791C29.2406 45.329 28.4201 43.3765 26.6827 42.3474C26.6827 42.3474 26.6827 42.3474 26.6826 42.3472L24.1966 40.8744C22.9416 40.1311 21.3157 40.5472 20.5723 41.8022L10.3511 59.0544C9.60623 60.3119 10.0207 61.9335 11.2789 62.6787L13.7648 64.1515C14.5171 64.5972 15.3438 64.8091 16.1606 64.8091C17.0714 64.8091 17.9694 64.5452 18.7372 64.0481L19.2553 64.3538L18.1615 65.8774C16.8579 67.6932 17.2721 70.2183 19.0883 71.5219C19.9281 72.1248 20.9832 72.4001 22.0744 72.2287C22.2475 73.2407 22.802 74.1879 23.6998 74.8327C24.543 75.4381 25.5933 75.7137 26.6864 75.5415C26.86 76.5528 27.4142 77.4991 28.3115 78.1434C29.5175 79.0091 31.0169 79.1092 32.2663 78.5755C32.5396 79.2857 33.0148 79.9269 33.6777 80.4029C35.4087 81.6452 37.7931 81.3212 39.1381 79.7117L42.0449 81.4337C43.9673 82.5729 46.4476 81.9398 47.5874 80.0152C47.8789 79.5232 48.0597 78.987 48.1259 78.4359L48.1325 78.4399C50.0519 79.5767 52.5379 78.9402 53.675 77.0212C54.0043 76.4653 54.1848 75.8623 54.2286 75.258C55.9205 75.6834 57.7644 74.9728 58.6981 73.3969C59.0045 72.8799 59.1821 72.3214 59.2406 71.7594C61.0539 72.471 63.1732 71.7833 64.1972 70.0549C64.748 69.1252 64.9039 68.0368 64.6359 66.9898C64.4826 66.3908 64.2008 65.8471 63.8138 65.3879L65.416 64.4518C66.7714 65.0082 68.3182 64.9192 69.6145 64.1514L72.1002 62.6786C73.3583 61.9339 73.774 60.3126 73.0284 59.0542ZM14.9945 62.0761L12.5086 60.6031C12.3981 60.5376 12.3614 60.3944 12.4267 60.2839L22.6479 43.0314C22.7137 42.9204 22.8574 42.8844 22.9673 42.9497L25.453 44.4224C26.5576 45.0769 26.9033 46.4937 26.2607 47.5781L18.1502 61.2682C17.5029 62.3611 16.0874 62.7233 14.9945 62.0761ZM20.4951 69.5621C19.7625 69.0361 19.595 68.0172 20.1213 67.2844L21.7291 65.0447C22.2413 64.3312 23.2619 64.136 24.0068 64.6708C24.7379 65.1956 24.9056 66.2172 24.381 66.9483L22.773 69.188C22.2482 69.9194 21.2259 70.0866 20.4951 69.5621ZM25.1068 72.873C24.3757 72.348 24.208 71.3261 24.7328 70.5951L26.3406 68.3556C26.3406 68.3556 26.3406 68.3556 26.3406 68.3555C26.3406 68.3555 26.3406 68.3553 26.3408 68.3553L28.1152 65.8838C28.3695 65.5297 28.7463 65.2955 29.1765 65.2251C29.2659 65.2103 29.3554 65.2031 29.4443 65.2031C29.7829 65.2031 30.1123 65.3085 30.3929 65.5098C30.7469 65.7641 30.981 66.1408 31.0515 66.571C31.1221 67.0014 31.021 67.4333 30.7667 67.7874L27.3844 72.4989C26.8587 73.2316 25.8397 73.3993 25.1068 72.873ZM29.7185 76.1836C28.9877 75.6589 28.8199 74.6378 29.3437 73.9068C29.3439 73.9065 29.3442 73.9062 29.3444 73.9059L32.7267 69.1945C33.2512 68.4636 34.2737 68.2957 35.0044 68.8204C35.7356 69.3452 35.9032 70.367 35.3784 71.0982L33.8757 73.1916C33.8757 73.1916 33.8757 73.1916 33.8755 73.1917L31.9961 75.8096C31.4712 76.5407 30.4498 76.7087 29.7185 76.1836ZM35.0847 78.4431C34.3541 77.9184 34.186 76.8977 34.7096 76.1666L35.8353 74.5987C36.36 73.8674 37.3823 73.7002 38.1131 74.2247C38.844 74.7494 39.0119 75.7714 38.487 76.5025L37.3623 78.069C36.8376 78.8002 35.8155 78.9681 35.0847 78.4431ZM62.1221 68.8254C61.6631 69.6001 60.6599 69.8569 59.885 69.3981C58.573 68.6209 50.1097 63.6068 49.2074 63.0722C48.6341 62.7327 47.8943 62.9219 47.5548 63.4951C47.2152 64.0683 47.4044 64.8082 47.9776 65.1477L56.0499 69.9301L56.0501 69.9303C56.8251 70.3893 57.0836 71.3895 56.6228 72.1675C56.1637 72.9425 55.16 73.1989 54.3854 72.7404C51.3998 70.9716 48.9755 69.5353 46.3088 67.9554C45.7352 67.6159 44.9956 67.805 44.6561 68.3782C44.3166 68.9514 44.5057 69.6913 45.0789 70.0309L51.0268 73.5546L51.0281 73.5554C51.8036 74.0159 52.0595 75.0156 51.5997 75.792C51.1405 76.567 50.1371 76.8237 49.3621 76.3647L46.1701 74.4738C46.1697 74.4736 46.1693 74.4734 46.1689 74.4731C46.1686 74.473 46.1683 74.4728 46.168 74.4726L43.8385 73.0924C43.2651 72.7527 42.5254 72.9419 42.1859 73.5152C41.8463 74.0884 42.0355 74.8284 42.6087 75.1679L44.9386 76.5483C44.9389 76.5484 44.9393 76.5487 44.9396 76.5489C45.7146 77.0079 45.9731 78.0079 45.5123 78.786C45.0531 79.561 44.0497 79.8177 43.2748 79.3587L40.5567 77.7486C41.7219 75.9507 41.2787 73.5279 39.5201 72.2655C39.0035 71.8949 38.4284 71.6641 37.8402 71.565C38.4641 69.8967 37.9262 67.9488 36.4113 66.8614C35.5144 66.2172 34.4405 65.9948 33.4271 66.1536C33.2467 65.099 32.67 64.1752 31.7999 63.5508C30.1634 62.3764 27.9395 62.602 26.5658 63.9917C26.2867 63.5015 25.9013 63.0617 25.4138 62.7117C24.0539 61.7357 22.2884 61.7266 20.9421 62.5487L20.3894 62.2224L27.976 49.4165L28.3371 49.6295C29.9323 50.5744 31.8788 50.7714 33.6828 50.0738L36.0016 49.1774C37.3285 48.6646 38.0602 48.6311 39.3727 49.2504C38.514 50.2152 38.0042 51.4819 38.0042 52.8471V58.1955C38.0042 59.6161 39.1591 60.7726 40.5785 60.7735H40.582C42.0058 60.7735 43.3447 60.2192 44.352 59.2126C44.9391 58.6258 45.3725 57.9263 45.6323 57.1626C47.1898 58.085 60.0578 65.705 61.5497 66.589C61.925 66.8112 62.1911 67.1663 62.2992 67.5888C62.4073 68.0108 62.3444 68.4501 62.1221 68.8254ZM70.8711 60.6031L68.385 62.0761C67.2921 62.7231 65.8766 62.3607 65.2296 61.2684L61.4281 54.8517C61.0885 54.2785 60.3482 54.0894 59.7755 54.4286C59.2023 54.7681 59.013 55.5081 59.3524 56.0813L63.1538 62.4981C63.2254 62.6188 63.3031 62.7337 63.3835 62.8456L62.3266 63.463C62.113 63.5895 61.9075 63.7289 61.711 63.8802L45.3233 54.1756C44.5205 53.7004 43.5025 54.2797 43.5025 55.2134C43.4898 55.2854 43.6271 56.5254 42.6465 57.5057C42.0949 58.0568 41.3617 58.3604 40.5819 58.3604C40.5812 58.3604 40.5806 58.3604 40.58 58.3604C40.4898 58.3604 40.4164 58.2861 40.4164 58.1948V52.8464C40.4164 51.4492 41.3777 50.2705 42.6777 49.9413L46.6842 48.9274C48.1379 48.56 48.9597 49.3363 51.1363 50.073C52.6474 50.6576 54.2905 50.6215 55.7488 49.9987L56.4769 51.2277C56.8166 51.8012 57.5565 51.9902 58.1296 51.6509C58.7028 51.3113 58.8921 50.5714 58.5527 49.9982L57.1187 47.5778C56.4699 46.4826 56.8313 45.0713 57.9263 44.4222L60.4123 42.9496C60.5209 42.885 60.6645 42.918 60.7318 43.0314L70.9526 60.2836C71.0186 60.3949 70.9823 60.5373 70.8711 60.6031Z" fill="#E92D45"/>
</svg>
