<svg width="18" height="18" viewBox="0 0 18 18" fill="none" xmlns="http://www.w3.org/2000/svg">
<path d="M17.7188 9.25C17.7188 4.46875 13.7812 0.53125 9 0.53125C4.18359 0.53125 0.28125 4.46875 0.28125 9.25C0.28125 14.0664 4.18359 17.9688 9 17.9688C13.7812 17.9688 17.7188 14.0664 17.7188 9.25ZM9.21094 3.41406C11.2148 3.41406 13.3242 4.96094 13.3242 7C13.3242 9.74219 10.4062 9.77734 10.4062 10.7617V10.7969C10.4062 11.043 10.1953 11.2188 9.98438 11.2188H8.01562C7.76953 11.2188 7.59375 11.043 7.59375 10.7969V10.6562C7.59375 9.21484 8.68359 8.65234 9.49219 8.19531C10.1953 7.80859 10.6523 7.52734 10.6523 7C10.6523 6.29688 9.73828 5.83984 9.03516 5.83984C8.08594 5.83984 7.66406 6.29688 7.03125 7.10547C6.89062 7.28125 6.60938 7.31641 6.43359 7.17578L5.20312 6.26172C5.02734 6.12109 4.99219 5.875 5.13281 5.66406C6.08203 4.22266 7.3125 3.41406 9.21094 3.41406ZM9 12.1328C9.87891 12.1328 10.6172 12.8711 10.6172 13.75C10.6172 14.6641 9.87891 15.3672 9 15.3672C8.08594 15.3672 7.38281 14.6641 7.38281 13.75C7.38281 12.8711 8.08594 12.1328 9 12.1328Z" fill="#E92D45"/>
</svg>
