<svg width="66" height="66" viewBox="0 0 66 66" fill="none" xmlns="http://www.w3.org/2000/svg">
<path d="M39.4852 50.5425C37.8347 51.2346 37.1425 53.2046 37.8879 54.8019L40.4968 60.2859C41.2422 61.8294 43.0525 62.5221 44.6497 61.8294C49.1754 59.9126 53.0621 57.4102 56.1501 54.3754C59.9303 50.8087 62.486 46.709 63.8703 42.1834C65.2546 37.604 66 31.3752 66 23.442V7.09655C66 5.33954 64.5625 3.90199 62.8054 3.90199H41.8811C40.1241 3.90199 38.6866 5.33954 38.6866 7.09655V28.0209C38.6866 29.7784 40.1241 31.2154 41.8811 31.2154H51.8907C51.7842 36.5935 50.5064 40.9056 48.1637 44.1539C46.247 46.7617 43.3719 48.8914 39.4852 50.5425Z" fill="#E9E9E9"/>
<path d="M1.89783 50.5427C0.247309 51.2349 -0.444313 53.2049 0.30055 54.8021L2.90944 60.2323C3.65483 61.7764 5.46508 62.4685 7.06236 61.7764C11.5347 59.8596 15.3687 57.3572 18.5095 54.3757C22.2903 50.7552 24.8986 46.6555 26.2834 42.1299C27.6678 37.658 28.3594 31.4281 28.3594 23.4417V7.09626C28.3594 5.33926 26.9218 3.90171 25.1648 3.90171H4.2405C2.4835 3.90171 1.04595 5.33926 1.04595 7.09626V28.0206C1.04595 29.7781 2.4835 31.2151 4.2405 31.2151H14.3033C14.1969 36.5932 12.9185 40.9053 10.5764 44.1536C8.65963 46.762 5.78453 48.8917 1.89783 50.5427Z" fill="#E9E9E9"/>
</svg>
