<svg width="71" height="45" viewBox="0 0 71 45" fill="none" xmlns="http://www.w3.org/2000/svg">
<path d="M70.6755 21.6454C70.6202 21.579 70.559 21.5175 70.4923 21.4623L50.3824 0.920042C49.7736 0.263204 48.7473 0.224299 48.0905 0.833126C47.7648 1.13506 47.5771 1.55722 47.5713 2.00132V12.8131H21.515C20.542 12.8131 19.4607 13.0293 19.4607 13.8942V31.193C19.5892 32.29 20.4259 33.1707 21.515 33.3553H47.5713V43.0858C47.587 43.7327 47.9624 44.3165 48.5443 44.5994H49.1931C49.6448 44.5816 50.0718 44.3875 50.3824 44.0588L70.4923 23.6246C71.0896 23.1286 71.1715 22.2425 70.6755 21.6454Z" fill="#1C7AD9"/>
<path d="M14.5959 12.2723C13.7003 12.2723 12.9741 12.9985 12.9741 13.8941V31.1929C12.9741 32.0886 13.7003 32.8148 14.5959 32.8148C15.4916 32.8148 16.2177 32.0886 16.2177 31.1929V13.8941C16.2175 12.9983 15.4916 12.2723 14.5959 12.2723Z" fill="#1C7AD9"/>
<path d="M8.10863 12.2723C7.21298 12.2723 6.48682 12.9985 6.48682 13.8941V31.1929C6.48682 32.0886 7.21298 32.8148 8.10863 32.8148C9.00428 32.8148 9.73044 32.0886 9.73044 31.1929V13.8941C9.73024 12.9983 9.00428 12.2723 8.10863 12.2723Z" fill="#1C7AD9"/>
<path d="M1.62181 12.2723C0.726164 12.2723 0 12.9985 0 13.8941V31.1929C0 32.0886 0.726164 32.8148 1.62181 32.8148C2.51747 32.8148 3.24363 32.0886 3.24363 31.1929V13.8941C3.24342 12.9983 2.51747 12.2723 1.62181 12.2723Z" fill="#1C7AD9"/>
</svg>
