<svg width="85" height="85" viewBox="0 0 85 85" fill="none" xmlns="http://www.w3.org/2000/svg">
<circle cx="42.5" cy="42.5" r="42.5" fill="#EFEFF3"/>
<g clip-path="url(#clip0)">
<path d="M59.7395 35.0378C55.1699 30.4682 47.7611 30.4682 43.1915 35.0378L36.6123 41.617L38.6809 43.6856C39.8233 44.828 41.6755 44.828 42.8179 43.6856L48.5826 37.9208L60.8992 50.2374C64.2693 45.6585 63.8829 39.1811 59.7395 35.0378Z" fill="#E92D45"/>
<path d="M60.6273 23.3118L54.7146 29.2244C55.4588 29.3956 56.1903 29.6256 56.905 29.9154C58.6999 30.6432 60.3092 31.7115 61.6882 33.0905C63.7473 35.1496 65.1268 37.7723 65.6664 40.6054L65.9996 40.2722V23.3118H60.6273Z" fill="#E92D45"/>
<path d="M28.0919 29.9128C28.8067 29.623 29.5381 29.393 30.2824 29.2218L24.3723 23.3118H19V40.2722L19.3291 40.6012C19.5059 39.6703 19.7741 38.758 20.1337 37.8712C20.8615 36.0763 21.9299 34.467 23.3089 33.088C24.6878 31.7089 26.2971 30.6406 28.0919 29.9128Z" fill="#E92D45"/>
<path d="M44.7665 45.6328C43.6938 46.7054 42.2677 47.2962 40.7506 47.2962C39.2337 47.2962 37.8075 46.7054 36.7348 45.6328L32.719 41.617L40.4581 33.8778C35.8791 30.5053 29.3999 30.891 25.2556 35.0351C20.686 39.6048 20.686 47.0135 25.2556 51.5832L41.3606 67.6882L44.524 64.5249L39.4592 59.4602L41.4065 57.5129L47.8503 63.9566L50.04 61.7669L43.5963 55.3232L45.5435 53.3759L53.3663 61.1986L55.556 59.0089L47.7333 51.1861L49.6805 49.2389L58.8824 58.4406L62.0457 55.2773L48.5839 41.8153L44.7665 45.6328Z" fill="#E92D45"/>
</g>
<defs>
<clipPath id="clip0">
<rect width="47" height="47" fill="white" transform="translate(19 22)"/>
</clipPath>
</defs>
</svg>
