<svg width="85" height="85" viewBox="0 0 85 85" fill="none" xmlns="http://www.w3.org/2000/svg">
<circle cx="42.5" cy="42.5" r="42.5" fill="#EFEFF3"/>
<path d="M43 45.8125C43.7767 45.8125 44.4062 45.1829 44.4062 44.4062C44.4062 43.6296 43.7767 43 43 43C42.2233 43 41.5938 43.6296 41.5938 44.4062C41.5938 45.1829 42.2233 45.8125 43 45.8125Z" fill="#E92D45"/>
<path d="M43 19C29.7852 19 19 29.7858 19 43C19 56.2151 29.7858 67 43 67C56.215 67 67 56.2142 67 43C67 29.7852 56.2142 19 43 19ZM43 24.7188C52.124 24.7188 59.708 31.4376 61.0649 40.1875H56.1881C53.096 40.1875 50.1583 38.9467 48.1281 36.7833C45.3531 33.8259 40.6472 33.825 37.8719 36.7833C35.8417 38.9467 32.904 40.1875 29.8118 40.1875H24.9351C26.292 31.4376 33.876 24.7188 43 24.7188ZM43 48.625C40.6739 48.625 38.7812 46.7326 38.7812 44.4062C38.7812 42.0799 40.6739 40.1875 43 40.1875C45.3263 40.1875 47.2188 42.0799 47.2188 44.4062C47.2188 46.7326 45.3263 48.625 43 48.625ZM25.9769 49.6653C27.5866 49.0338 28.7489 48.625 30.3438 48.625C35.4708 48.625 39.458 53.1938 38.6857 58.3272H38.6824C38.5677 59.1129 38.3419 59.8743 38.0163 60.5908C32.5077 59.028 28.0498 54.9412 25.9769 49.6653ZM47.9848 60.5904C47.6503 59.8549 47.4294 59.0937 47.3176 58.3272H47.3143C46.4144 52.3455 51.9362 47.4098 57.66 48.8644C58.2633 49.0178 59.0184 49.2713 60.023 49.6654C57.9503 54.9408 53.4929 59.0274 47.9848 60.5904Z" fill="#E92D45"/>
</svg>
