<svg width="58" height="22" viewBox="0 0 58 22" fill="none" xmlns="http://www.w3.org/2000/svg">
<path d="M47.8773 12.5662C50.2941 12.5662 52.2539 14.5254 52.2539 16.9429C52.2539 17.1292 52.2387 17.3127 52.2152 17.4926C51.9439 19.6499 50.1078 21.3183 47.8778 21.3183C45.5875 21.3183 43.7098 19.5578 43.5194 17.3156C43.5094 17.1931 43.5012 17.0683 43.5012 16.9423C43.5006 14.5254 45.4598 12.5662 47.8773 12.5662ZM50.0679 15.2937L49.176 16.1863C49.2451 16.3052 49.2996 16.4336 49.3348 16.5707H50.5924C50.528 16.0949 50.3457 15.66 50.0679 15.2937ZM50.5983 17.3285H49.3307C49.2949 17.4633 49.2422 17.5911 49.1718 17.7083L50.0662 18.602C50.3434 18.2386 50.5297 17.8038 50.5983 17.3285ZM48.2558 19.6616C48.73 19.5954 49.1607 19.4096 49.5252 19.1347L48.6356 18.2445C48.5184 18.3131 48.3901 18.3635 48.2558 18.3986V19.6616ZM48.2558 15.4871C48.3936 15.5235 48.5225 15.5774 48.6426 15.6483L49.534 14.7569C49.1677 14.4785 48.7329 14.2945 48.2558 14.2283V15.4871ZM47.4981 14.2271C47.021 14.2933 46.5856 14.4785 46.2199 14.7563L47.1107 15.6477C47.2303 15.5768 47.3604 15.5229 47.4975 15.4865L47.4981 14.2271ZM47.4981 19.6604V18.3992C47.3633 18.3635 47.2361 18.3137 47.1189 18.2445L46.2287 19.1347C46.5932 19.4096 47.0245 19.5942 47.4981 19.6604ZM45.686 18.6061L46.5832 17.7077C46.5129 17.5899 46.4561 17.4639 46.4203 17.3291H45.1627C45.2295 17.8026 45.4082 18.241 45.686 18.6061ZM46.4186 16.5707C46.4543 16.4336 46.5082 16.3052 46.5774 16.1863L45.6842 15.2937C45.4082 15.66 45.2259 16.0949 45.1603 16.5713H46.4186V16.5707Z" fill="#E92D45"/>
<path d="M11.5335 12.5662C13.9504 12.5662 15.9102 14.5254 15.9102 16.9429C15.9102 17.1292 15.8949 17.3127 15.8715 17.4926C15.6001 19.6499 13.764 21.3183 11.5347 21.3183C9.24438 21.3183 7.36666 19.5578 7.17561 17.3156C7.16564 17.1931 7.15744 17.0683 7.15744 16.9423C7.15627 14.5254 9.11603 12.5662 11.5335 12.5662ZM13.7242 15.2937L12.8328 16.1863C12.9019 16.3052 12.9564 16.4336 12.9916 16.5707H14.2493C14.1842 16.0949 14.002 15.66 13.7242 15.2937ZM14.254 17.3285H12.9863C12.9506 17.4633 12.8978 17.5911 12.8275 17.7083L13.7212 18.602C13.9996 18.2386 14.1866 17.8038 14.254 17.3285ZM11.9121 19.6616C12.3862 19.5954 12.817 19.4096 13.1815 19.1347L12.2919 18.2445C12.1747 18.3131 12.0463 18.3635 11.9121 18.3986V19.6616ZM11.9121 15.4871C12.0498 15.5235 12.1788 15.5774 12.2989 15.6483L13.1903 14.7569C12.824 14.4785 12.3897 14.2945 11.9121 14.2283V15.4871ZM11.1537 14.2271C10.6767 14.2933 10.2413 14.4785 9.87556 14.7563L10.7669 15.6477C10.8865 15.5768 11.0166 15.5217 11.1537 15.4865V14.2271ZM11.1537 19.6604V18.3992C11.019 18.3635 10.8918 18.3137 10.7746 18.2445L9.88435 19.1347C10.2489 19.4096 10.6808 19.5942 11.1537 19.6604ZM9.34225 18.6061L10.2395 17.7088C10.1692 17.5905 10.1117 17.465 10.0766 17.3297H8.8189C8.88571 17.8026 9.06387 18.241 9.34225 18.6061ZM10.0748 16.5707C10.1106 16.4336 10.1639 16.3052 10.2336 16.1863L9.34108 15.2937C9.06446 15.66 8.88278 16.0949 8.81656 16.5713H10.0748V16.5707Z" fill="#E92D45"/>
<path d="M1.02584 10.3005V7.062C1.02584 6.541 1.40443 6.0997 1.91898 6.01941C3.1538 5.82601 5.34271 5.4609 6.32611 5.15791C7.73616 4.72306 13.1841 2.41635 15.0706 1.98325C16.9577 1.55016 25.466 -0.762408 33.6151 2.06237C34.9941 2.54001 41.1975 5.50544 44.8451 7.04734C45.9193 7.07079 56.5521 9.28724 57.1182 10.8063C57.6844 12.3259 57.8619 13.0632 57.9663 13.4488C58.0706 13.8344 57.9663 15.6799 57.1763 16.9651C56.371 17.4205 54.8209 17.7264 53.0287 17.9315C53.0493 17.8219 53.0715 17.7141 53.0856 17.6033C53.1167 17.3666 53.1313 17.1503 53.1313 16.944C53.1313 14.046 50.7742 11.6877 47.8756 11.6877C44.977 11.6877 42.6198 14.0454 42.6198 16.944C42.6198 17.0929 42.6298 17.2406 42.6409 17.3859C42.6685 17.7112 42.7271 18.0271 42.8121 18.3312C42.808 18.3312 42.798 18.3312 42.798 18.3312L16.7092 17.8061C16.7209 17.7387 16.7362 17.6719 16.745 17.6033C16.776 17.3678 16.7907 17.1509 16.7907 16.944C16.7907 14.046 14.4336 11.6883 11.535 11.6883C8.63634 11.6883 6.27864 14.0454 6.27864 16.944C6.27864 16.9552 6.27981 16.9646 6.2804 16.9751L6.16904 16.9657L1.70859 16.1259C1.70859 16.1259 0.000240326 15.2164 0.000240326 12.7139C-0.000343323 11.0448 1.02584 10.3005 1.02584 10.3005ZM26.9054 7.23019L36.6485 7.5285C36.4692 6.06864 37.3336 5.74103 37.3336 5.74103C33.4604 2.22529 25.6542 2.10632 25.6542 2.10632L26.9054 7.23019ZM15.9708 6.78421L24.8495 7.08251L24.0449 2.10691C19.4561 2.04713 16.8346 3.05984 16.8346 3.05984L15.5236 5.17549L15.9708 6.78421ZM10.9653 6.75373H13.439L15.9122 3.35755C14.0567 4.09598 12.5717 4.82386 11.6873 5.28391C11.1505 5.56287 10.8575 6.15889 10.9653 6.75373Z" fill="#E92D45"/>
</svg>
