<svg width="29" height="20" viewBox="0 0 29 20" fill="none" xmlns="http://www.w3.org/2000/svg">
<path d="M27.8789 3.59766C27.5742 2.37891 26.6094 1.41406 25.4414 1.10938C23.2578 0.5 14.625 0.5 14.625 0.5C14.625 0.5 5.94141 0.5 3.75781 1.10938C2.58984 1.41406 1.625 2.37891 1.32031 3.59766C0.710938 5.73047 0.710938 10.3008 0.710938 10.3008C0.710938 10.3008 0.710938 14.8203 1.32031 17.0039C1.625 18.2227 2.58984 19.1367 3.75781 19.4414C5.94141 20 14.625 20 14.625 20C14.625 20 23.2578 20 25.4414 19.4414C26.6094 19.1367 27.5742 18.2227 27.8789 17.0039C28.4883 14.8203 28.4883 10.3008 28.4883 10.3008C28.4883 10.3008 28.4883 5.73047 27.8789 3.59766ZM11.7812 14.4141V6.1875L18.9922 10.3008L11.7812 14.4141Z" fill="#4C4C4C"/>
</svg>
