<svg width="56" height="56" viewBox="0 0 56 56" fill="none" xmlns="http://www.w3.org/2000/svg">
<path d="M20.125 5.25C17.183 5.25 14.3071 6.1224 11.8609 7.75689C9.41472 9.39138 7.50815 11.7145 6.3823 14.4326C5.25645 17.1506 4.96187 20.1415 5.53583 23.027C6.10978 25.9124 7.52649 28.5629 9.60679 30.6432C11.6871 32.7235 14.3376 34.1402 17.223 34.7142C20.1085 35.2881 23.0994 34.9936 25.8174 33.8677C28.5355 32.7419 30.8586 30.8353 32.4931 28.3891C34.1276 25.9429 35 23.067 35 20.125C34.9956 16.1813 33.427 12.4003 30.6384 9.61165C27.8497 6.823 24.0688 5.2544 20.125 5.25ZM20.125 33.25C17.5291 33.25 14.9915 32.4802 12.8331 31.038C10.6748 29.5958 8.99249 27.546 7.99909 25.1477C7.00569 22.7494 6.74577 20.1104 7.2522 17.5644C7.75863 15.0184 9.00867 12.6798 10.8442 10.8442C12.6798 9.00866 15.0184 7.75862 17.5644 7.25219C20.1104 6.74576 22.7494 7.00568 25.1477 7.99908C27.546 8.99248 29.5959 10.6747 31.038 12.8331C32.4802 14.9915 33.25 17.5291 33.25 20.125C33.2461 23.6048 31.862 26.9409 29.4014 29.4014C26.9409 31.862 23.6048 33.2461 20.125 33.25Z" fill="#E92D45"/>
<path d="M29.4223 16.8166L20.6723 9.81662C20.5171 9.69236 20.3242 9.62466 20.1254 9.62466C19.9266 9.62466 19.7337 9.69236 19.5785 9.81662L10.8285 16.8166C10.6869 16.9299 10.5839 17.0844 10.5339 17.2587C10.4839 17.433 10.4893 17.6186 10.5494 17.7897C10.6094 17.9609 10.7212 18.1091 10.8692 18.214C11.0171 18.3188 11.194 18.3751 11.3754 18.375H12.2504V28C12.2504 28.2321 12.3426 28.4546 12.5067 28.6187C12.6708 28.7828 12.8933 28.875 13.1254 28.875H27.1254C27.3575 28.875 27.58 28.7828 27.7441 28.6187C27.9082 28.4546 28.0004 28.2321 28.0004 28V18.375H28.8754C29.0568 18.3751 29.2337 18.3188 29.3817 18.214C29.5297 18.1091 29.6414 17.9609 29.7015 17.7897C29.7615 17.6186 29.7669 17.433 29.7169 17.2587C29.6669 17.0844 29.5639 16.9299 29.4223 16.8166ZM21.8754 27.125H18.3754V21.875H21.8754V27.125ZM26.2504 17.5V27.125H23.6254V21C23.6254 20.7679 23.5332 20.5454 23.3691 20.3813C23.205 20.2172 22.9825 20.125 22.7504 20.125H17.5004C17.2683 20.125 17.0458 20.2172 16.8817 20.3813C16.7176 20.5454 16.6254 20.7679 16.6254 21V27.125H14.0004V17.5C14.0004 17.3642 13.9688 17.2302 13.908 17.1087C13.8473 16.9872 13.7591 16.8815 13.6504 16.8L20.1254 11.6209L26.6004 16.8C26.4917 16.8815 26.4035 16.9872 26.3428 17.1087C26.282 17.2302 26.2504 17.3642 26.2504 17.5Z" fill="#E92D45"/>
<path d="M17.016 43.8419L10.016 40.3419C9.89452 40.2812 9.76061 40.2496 9.62484 40.2496C9.48907 40.2496 9.35517 40.2812 9.23372 40.3419L2.23372 43.8419C2.05715 43.9299 1.91551 44.075 1.83177 44.2536C1.74803 44.4322 1.7271 44.6339 1.7724 44.8259C1.81769 45.0179 1.92654 45.189 2.08127 45.3113C2.23601 45.4337 2.42757 45.5002 2.62484 45.5H3.49984V53.375C3.49984 53.6071 3.59203 53.8296 3.75612 53.9937C3.92022 54.1578 4.14278 54.25 4.37484 54.25H14.8748C15.1069 54.25 15.3295 54.1578 15.4936 53.9937C15.6577 53.8296 15.7498 53.6071 15.7498 53.375V45.5H16.6248C16.8237 45.5022 17.0175 45.4366 17.1741 45.314C17.3307 45.1914 17.4409 45.0191 17.4864 44.8254C17.532 44.6318 17.5102 44.4284 17.4247 44.2489C17.3392 44.0693 17.195 43.9242 17.016 43.8375V43.8419ZM10.4998 52.5H8.74984V49H10.4998V52.5ZM13.9998 44.625V52.5H12.2498V48.125C12.2498 47.8929 12.1577 47.6704 11.9936 47.5063C11.8295 47.3422 11.6069 47.25 11.3748 47.25H7.87484C7.64278 47.25 7.42022 47.3422 7.25612 47.5063C7.09203 47.6704 6.99984 47.8929 6.99984 48.125V52.5H5.24984V44.625C5.25002 44.5201 5.23135 44.4161 5.19472 44.3179L9.62484 42.1032L14.055 44.3179C14.0183 44.4161 13.9997 44.5201 13.9998 44.625Z" fill="#E92D45"/>
<path d="M53.766 5.34187L46.766 1.84187C46.6445 1.78118 46.5106 1.74959 46.3748 1.74959C46.2391 1.74959 46.1052 1.78118 45.9837 1.84187L38.9837 5.34187C38.8072 5.42987 38.6655 5.57495 38.5818 5.75357C38.498 5.93219 38.4771 6.13387 38.5224 6.32588C38.5677 6.51789 38.6765 6.68896 38.8313 6.81133C38.986 6.93369 39.1776 7.00018 39.3748 7H40.2498V14.875C40.2498 15.1071 40.342 15.3296 40.5061 15.4937C40.6702 15.6578 40.8928 15.75 41.1248 15.75H51.6248C51.8569 15.75 52.0795 15.6578 52.2436 15.4937C52.4077 15.3296 52.4998 15.1071 52.4998 14.875V7H53.3748C53.5721 7.00018 53.7637 6.93369 53.9184 6.81133C54.0731 6.68896 54.182 6.51789 54.2273 6.32588C54.2726 6.13387 54.2517 5.93219 54.1679 5.75357C54.0842 5.57495 53.9425 5.42987 53.766 5.34187ZM47.2498 14H45.4998V10.5H47.2498V14ZM50.7498 6.125V14H48.9998V9.625C48.9998 9.39293 48.9077 9.17037 48.7436 9.00628C48.5795 8.84218 48.3569 8.75 48.1248 8.75H44.6248C44.3928 8.75 44.1702 8.84218 44.0061 9.00628C43.842 9.17037 43.7498 9.39293 43.7498 9.625V14H41.9998V6.125C42 6.02014 41.9813 5.91612 41.9447 5.81787L46.3748 3.60325L50.805 5.81787C50.7683 5.91612 50.7497 6.02014 50.7498 6.125Z" fill="#E92D45"/>
<path d="M38.0317 31.8447C37.8676 31.6807 37.6451 31.5886 37.4131 31.5886C37.1811 31.5886 36.9586 31.6807 36.7945 31.8447L36.1759 32.4625L34.8249 31.108C37.6193 27.3737 38.8953 22.7195 38.3962 18.0822C37.897 13.4449 35.6596 9.16887 32.1345 6.11486C28.6094 3.06084 24.0582 1.45561 19.3971 1.62228C14.736 1.78896 10.311 3.71517 7.01303 7.01317C3.71503 10.3112 1.78882 14.7361 1.62214 19.3972C1.45547 24.0583 3.0607 28.6095 6.11472 32.1346C9.16873 35.6598 13.4448 37.8971 18.0821 38.3963C22.7193 38.8955 27.3736 37.6194 31.1079 34.825L32.4624 36.176L31.8446 36.7937C31.6806 36.9578 31.5884 37.1803 31.5884 37.4124C31.5884 37.6444 31.6806 37.8669 31.8446 38.031L46.6934 52.8806C47.5151 53.6951 48.626 54.151 49.783 54.1485C50.94 54.146 52.0488 53.6852 52.867 52.8671C53.6851 52.049 54.1458 50.9401 54.1484 49.7831C54.1509 48.6261 53.695 47.5152 52.8805 46.6935L38.0317 31.8447ZM3.49985 20.125C3.49985 16.8369 4.47489 13.6226 6.30167 10.8886C8.12845 8.15467 10.7249 6.0238 13.7627 4.76549C16.8006 3.50719 20.1433 3.17796 23.3682 3.81944C26.5932 4.46092 29.5555 6.04429 31.8805 8.36934C34.2056 10.6944 35.7889 13.6567 36.4304 16.8816C37.0719 20.1065 36.7427 23.4493 35.4844 26.4871C34.226 29.5249 32.0952 32.1214 29.3612 33.9482C26.6272 35.775 23.413 36.75 20.1249 36.75C15.7171 36.7451 11.4913 34.992 8.37458 31.8753C5.25784 28.7585 3.50472 24.5327 3.49985 20.125ZM33.7022 32.4625L34.9351 33.6962L33.6961 34.9352L32.4624 33.7015C32.8952 33.3089 33.3085 32.8959 33.7022 32.4625ZM51.6397 51.6434C51.1396 52.1207 50.4748 52.3869 49.7834 52.3869C49.0921 52.3869 48.4273 52.1207 47.9271 51.6434L33.7005 37.4124L37.4131 33.7006L51.6432 47.9307C51.887 48.1745 52.0804 48.4639 52.2124 48.7824C52.3443 49.1009 52.4122 49.4423 52.4122 49.7871C52.4122 50.1318 52.3443 50.4732 52.2124 50.7917C52.0804 51.1102 51.887 51.3996 51.6432 51.6434H51.6397Z" fill="#E92D45"/>
<path d="M48.2207 49.4688L49.4581 48.2313L50.6956 49.4688L49.4581 50.7062L48.2207 49.4688Z" fill="#E92D45"/>
<path d="M42.0356 43.2819L43.2729 42.0447L48.2213 46.9931L46.984 48.2303L42.0356 43.2819Z" fill="#E92D45"/>
<path d="M17.5 48.125H21V49.875H17.5V48.125Z" fill="#E92D45"/>
<path d="M22.75 48.125H26.25V49.875H22.75V48.125Z" fill="#E92D45"/>
<path d="M28 48.125H31.5V49.875H28V48.125Z" fill="#E92D45"/>
<path d="M33.25 48.125H36.75V49.875H33.25V48.125Z" fill="#E92D45"/>
<path d="M45.5 17.5H47.25V21H45.5V17.5Z" fill="#E92D45"/>
<path d="M45.5 22.75H47.25V26.25H45.5V22.75Z" fill="#E92D45"/>
<path d="M45.5 28H47.25V31.5H45.5V28Z" fill="#E92D45"/>
<path d="M45.5 33.25H47.25V36.75H45.5V33.25Z" fill="#E92D45"/>
</svg>
