<svg width="50" height="50" viewBox="0 0 50 50" fill="none" xmlns="http://www.w3.org/2000/svg">
<path d="M49.7137 0.286035C49.5305 0.10293 49.282 0 49.0229 0L25.0001 0.00126953C24.4608 0.00126953 24.0236 0.438574 24.0236 0.977832V3.77051L14.7669 6.25088C14.2459 6.39053 13.9367 6.92598 14.0764 7.44687L18.8739 25.3514L14.7236 29.5017C14.1954 28.7304 13.3085 28.2231 12.3053 28.2231H2.93057C1.31514 28.2231 0.000976562 29.5374 0.000976562 31.1527V47.0703C0.000976562 48.6857 1.31514 50 2.93057 50H12.3054C13.6777 50 14.8322 49.0512 15.1486 47.7754L16.3098 48.788C17.2062 49.5696 18.3546 50.0001 19.5439 50.0001H49.0231C49.5624 50.0001 49.9997 49.5628 49.9997 49.0235V0.976562C49.9995 0.717578 49.8968 0.469141 49.7137 0.286035ZM13.2817 47.0704C13.2817 47.6088 12.8437 48.047 12.3052 48.047H2.93047C2.39199 48.047 1.95391 47.6089 1.95391 47.0704V31.1528C1.95391 30.6144 2.39199 30.1763 2.93047 30.1763H6.64131V41.4258C6.64131 41.965 7.07861 42.4023 7.61787 42.4023C8.15713 42.4023 8.59443 41.965 8.59443 41.4258V30.1763H12.3053C12.8437 30.1763 13.2818 30.6144 13.2818 31.1528V47.0704H13.2817ZM16.2156 7.88467L24.0236 5.79248V9.41113L23.3691 9.58652C23.1188 9.65361 22.9057 9.81719 22.7762 10.0415C22.6467 10.2658 22.6115 10.5323 22.6786 10.7825C23.0539 12.183 22.2198 13.6276 20.8193 14.0029C20.5688 14.0701 20.3553 14.234 20.2259 14.4588C20.0965 14.6835 20.0616 14.9505 20.1293 15.2009L23.9358 29.2964H21.9759L20.9658 25.3448C20.9337 25.219 20.8774 25.1031 20.8021 25.0023L16.2156 7.88467ZM24.0236 13.8896V22.1299L22.2425 15.5347C22.9865 15.1505 23.5954 14.5757 24.0236 13.8896ZM38.0533 48.0469H19.5437C18.8265 48.0469 18.1338 47.7873 17.5932 47.3159L15.2349 45.2592V31.7526L19.4983 27.4892L20.2716 30.5145C20.3821 30.9469 20.7715 31.2492 21.2177 31.2492L40.4173 31.2504C41.1712 31.2504 41.7845 31.8637 41.7845 32.6176C41.7845 33.3715 41.1712 33.9848 40.4173 33.9848H30.5794C30.0401 33.9848 29.6028 34.4221 29.6028 34.9613C29.6028 35.5006 30.0401 35.9379 30.5794 35.9379H43.4739C44.2278 35.9379 44.8411 36.5512 44.8411 37.3051C44.8411 38.059 44.2278 38.6723 43.4739 38.6723H30.5794C30.0401 38.6723 29.6028 39.1096 29.6028 39.6488C29.6028 40.1881 30.0401 40.6254 30.5794 40.6254H41.3844C42.1383 40.6254 42.7516 41.2387 42.7516 41.9926C42.7516 42.7465 42.1383 43.3598 41.3844 43.3598H30.5794C30.0401 43.3598 29.6028 43.7971 29.6028 44.3363C29.6028 44.8756 30.0401 45.3129 30.5794 45.3129H38.0533C38.8072 45.3129 39.4205 45.9262 39.4205 46.6801C39.4204 47.4336 38.8071 48.0469 38.0533 48.0469ZM48.0466 48.0469H48.0465H41.0778C41.2672 47.6296 41.3735 47.167 41.3735 46.6797C41.3735 46.1924 41.2672 45.7298 41.0778 45.3125H41.3844C43.2151 45.3125 44.7046 43.823 44.7046 41.9923C44.7046 41.4583 44.5771 40.9537 44.3521 40.5062C45.758 40.1201 46.794 38.8315 46.794 37.3049C46.794 36.5643 46.5501 35.8796 46.1387 35.3269V22.9499C46.1387 22.4106 45.7014 21.9733 45.1621 21.9733C44.6228 21.9733 44.1855 22.4106 44.1855 22.9499V34.0624C43.9561 34.0121 43.7181 33.9848 43.4737 33.9848H43.4417C43.6311 33.5675 43.7374 33.1049 43.7374 32.6176C43.7374 30.7867 42.2479 29.2974 40.4172 29.2974H38.8474C40.5143 28.5825 41.685 26.9257 41.685 25C41.685 22.4229 39.5885 20.3264 37.0114 20.3264C34.4345 20.3264 32.3379 22.4229 32.3379 25C32.3379 26.9257 33.5087 28.5825 35.1755 29.2974H29.8373V10.7288C31.5818 10.3486 32.9584 8.97217 33.3385 7.22754H40.6843C41.0644 8.97217 42.4409 10.3486 44.1854 10.7288V13.7649C44.1854 14.3042 44.6227 14.7415 45.162 14.7415C45.7013 14.7415 46.1386 14.3042 46.1386 13.7649V9.85693C46.1386 9.31768 45.7013 8.88037 45.162 8.88037C43.7121 8.88037 42.5327 7.70078 42.5327 6.25098C42.5327 5.71172 42.0954 5.27441 41.5562 5.27441H32.4667C31.9274 5.27441 31.4901 5.71172 31.4901 6.25098C31.4901 7.70088 30.3106 8.88037 28.8608 8.88037C28.3216 8.88037 27.8843 9.31768 27.8843 9.85693V29.2973H25.9769V1.9542L48.0466 1.95312V48.0469ZM37.0116 27.7205C35.5115 27.7205 34.2912 26.5001 34.2912 25.0001C34.2912 23.5001 35.5116 22.2796 37.0116 22.2796C38.5116 22.2796 39.732 23.5 39.732 25C39.732 26.5 38.5117 27.7205 37.0116 27.7205Z" fill="#E92D45"/>
</svg>
