<svg width="14" height="9" viewBox="0 0 14 9" fill="none" xmlns="http://www.w3.org/2000/svg">
<path d="M13.3973 7.28571C13.3973 7.17857 13.3438 7.05804 13.2634 6.97768L7.02232 0.736607C6.94196 0.656249 6.82143 0.602678 6.71429 0.602678C6.60714 0.602678 6.48661 0.656249 6.40625 0.736607L0.165179 6.97768C0.0848215 7.05804 0.0312501 7.17857 0.0312501 7.28571C0.0312501 7.39286 0.0848215 7.51339 0.165179 7.59375L0.834822 8.26339C0.915179 8.34375 1.03571 8.39732 1.14286 8.39732C1.25 8.39732 1.37054 8.34375 1.45089 8.26339L6.71429 3L11.9777 8.26339C12.058 8.34375 12.1786 8.39732 12.2857 8.39732C12.4062 8.39732 12.5134 8.34375 12.5938 8.26339L13.2634 7.59375C13.3438 7.51339 13.3973 7.39286 13.3973 7.28571Z" fill="white"/>
</svg>
