<svg width="15" height="14" viewBox="0 0 15 14" fill="none" xmlns="http://www.w3.org/2000/svg">
<path d="M5.96875 12.9375C5.65625 12.625 5.6875 12.1562 5.96875 11.8438L9.75 8.25H0.75C0.34375 8.25 0 7.9375 0 7.5V6.5C0 6.09375 0.34375 5.75 0.75 5.75H9.75L5.96875 2.1875C5.6875 1.875 5.65625 1.40625 5.96875 1.09375L6.65625 0.40625C6.9375 0.125 7.4375 0.125 7.71875 0.40625L13.7812 6.5C14.0938 6.78125 14.0938 7.25 13.7812 7.53125L7.71875 13.625C7.4375 13.9062 6.96875 13.9062 6.65625 13.625L5.96875 12.9375Z" fill="#333333"/>
</svg>
