<svg width="131" height="131" viewBox="0 0 131 131" fill="none" xmlns="http://www.w3.org/2000/svg">
<circle cx="65.5" cy="65.5" r="65.5" fill="#EFEFF3"/>
<path d="M77.636 53.0723H50.8184C50.3634 53.0723 49.9946 53.4411 49.9946 53.8961C49.9946 54.3511 50.3634 54.7199 50.8184 54.7199H77.6361C78.0911 54.7199 78.4599 54.3511 78.4599 53.8961C78.4599 53.4411 78.091 53.0723 77.636 53.0723Z" fill="#E92D45"/>
<path d="M50.8184 49.0054H64.2272C64.6822 49.0054 65.051 48.6366 65.051 48.1816C65.051 47.7266 64.6822 47.3578 64.2272 47.3578H50.8184C50.3634 47.3578 49.9946 47.7266 49.9946 48.1816C49.9946 48.6367 50.3634 49.0054 50.8184 49.0054Z" fill="#E92D45"/>
<path d="M77.636 58.1355H50.8184C50.3634 58.1355 49.9946 58.5043 49.9946 58.9593C49.9946 59.4143 50.3634 59.7831 50.8184 59.7831H77.6361C78.0911 59.7831 78.4599 59.4143 78.4599 58.9593C78.4598 58.5043 78.091 58.1355 77.636 58.1355Z" fill="#E92D45"/>
<path d="M56.9272 88.2762H48.3449C46.9362 88.2762 45.7901 87.1302 45.7901 85.7215V42.2023C45.7901 40.7937 46.9362 39.6475 48.3449 39.6475H73.0697C73.1496 39.6475 73.2282 39.6548 73.306 39.6653V44.8031C73.306 47.1203 75.1912 49.0054 77.5083 49.0054H82.646C82.6566 49.0833 82.6638 49.1619 82.6638 49.2418V63.2703C82.6638 63.7253 83.0326 64.0941 83.4876 64.0941C83.9426 64.0941 84.3114 63.7253 84.3114 63.2703V49.2419C84.3114 48.3382 83.9594 47.4886 83.3205 46.8495L75.4619 38.9909C74.8229 38.352 73.9734 38 73.0697 38H48.3449C46.0277 38 44.1426 39.8852 44.1426 42.2023V85.7215C44.1426 88.0386 46.0278 89.9237 48.3449 89.9237H56.9272C57.3822 89.9237 57.751 89.5549 57.751 89.0999C57.751 88.6449 57.3822 88.2762 56.9272 88.2762ZM81.4988 47.3579H77.5084C76.0998 47.3579 74.9536 46.2118 74.9536 44.8031V40.8127L81.4988 47.3579Z" fill="#E92D45"/>
<path d="M93.6051 78.3297L86.625 66.5479C86.1163 65.6888 85.0093 65.4049 84.1498 65.914L82.452 66.9199C81.1341 67.7007 80.577 69.2806 81.0295 70.6807C80.4575 70.888 79.8303 70.8847 79.2528 70.6614C77.9123 70.2397 76.8932 69.3913 75.21 69.817C72.352 70.5446 72.4389 70.5082 72.1803 70.5968C70.5069 69.644 69.501 69.3605 67.7245 70.0477L66.141 70.6599C65.4078 70.9432 64.6 70.876 63.9225 70.4746L63.4904 70.2199C63.7013 68.9564 63.1409 67.623 61.9544 66.9202C61.9544 66.9202 61.9544 66.9202 61.9543 66.9201L60.2566 65.9142C59.3995 65.4066 58.2892 65.6908 57.7814 66.5479L50.8011 78.3298C50.2924 79.1887 50.5755 80.2961 51.4347 80.805L53.1325 81.8108C53.6462 82.1152 54.2108 82.2599 54.7686 82.2599C55.3906 82.2599 56.0039 82.0797 56.5282 81.7402L56.8821 81.949L56.135 82.9894C55.2448 84.2295 55.5277 85.9539 56.768 86.8442C57.3415 87.2559 58.0621 87.444 58.8073 87.3269C58.9255 88.0181 59.3042 88.6649 59.9173 89.1052C60.4932 89.5187 61.2105 89.7069 61.9569 89.5893C62.0755 90.2799 62.4539 90.9262 63.0668 91.3663C63.8904 91.9574 64.9143 92.0258 65.7676 91.6613C65.9543 92.1463 66.2788 92.5843 66.7315 92.9093C67.9136 93.7577 69.542 93.5365 70.4605 92.4373L72.4457 93.6133C73.7585 94.3912 75.4524 93.9589 76.2308 92.6445C76.4299 92.3085 76.5534 91.9423 76.5985 91.566L76.603 91.5687C77.9139 92.345 79.6116 91.9104 80.3882 90.5999C80.613 90.2202 80.7363 89.8084 80.7663 89.3958C81.9217 89.6863 83.1809 89.201 83.8186 88.1247C84.0278 87.7716 84.1491 87.3902 84.1891 87.0065C85.4274 87.4924 86.8748 87.0227 87.5741 85.8424C87.9502 85.2075 88.0567 84.4641 87.8737 83.7492C87.769 83.3401 87.5765 82.9688 87.3123 82.6552L88.4064 82.0159C89.3321 82.3959 90.3884 82.335 91.2737 81.8107L92.9712 80.8049C93.8305 80.2963 94.1143 79.1891 93.6051 78.3297ZM53.9722 80.3934L52.2745 79.3875C52.1991 79.3428 52.174 79.245 52.2186 79.1695L59.1989 67.3873C59.2439 67.3115 59.342 67.2869 59.417 67.3315L61.1146 68.3372C61.869 68.7842 62.105 69.7518 61.6662 70.4924L56.1274 79.8417C55.6853 80.5881 54.7186 80.8354 53.9722 80.3934ZM57.7287 85.5058C57.2284 85.1466 57.114 84.4508 57.4734 83.9503L58.5715 82.4208C58.9212 81.9335 59.6183 81.8002 60.127 82.1654C60.6263 82.5238 60.7408 83.2215 60.3825 83.7208L59.2844 85.2503C58.9259 85.7498 58.2278 85.864 57.7287 85.5058ZM60.8782 87.7669C60.3789 87.4084 60.2644 86.7105 60.6228 86.2113L61.7208 84.6819C61.7208 84.6819 61.7208 84.6819 61.7208 84.6818C61.7208 84.6818 61.7208 84.6817 61.7209 84.6817L62.9327 82.9938C63.1064 82.752 63.3637 82.5921 63.6575 82.544C63.7185 82.5339 63.7797 82.529 63.8404 82.529C64.0716 82.529 64.2966 82.6009 64.4882 82.7384C64.7299 82.9121 64.8898 83.1694 64.938 83.4631C64.9862 83.757 64.9172 84.052 64.7435 84.2938L62.4336 87.5114C62.0746 88.0118 61.3787 88.1263 60.8782 87.7669ZM64.0276 90.0278C63.5286 89.6695 63.4139 88.9721 63.7717 88.473C63.7718 88.4727 63.772 88.4725 63.7721 88.4723L66.082 85.2548C66.4402 84.7556 67.1385 84.641 67.6376 84.9993C68.1368 85.3577 68.2514 86.0555 67.8929 86.5548L66.8667 87.9845C66.8667 87.9845 66.8667 87.9845 66.8666 87.9846L65.5831 89.7724C65.2246 90.2717 64.527 90.3865 64.0276 90.0278ZM67.6923 91.5709C67.1934 91.2126 67.0786 90.5155 67.4362 90.0162L68.205 88.9455C68.5633 88.446 69.2614 88.3319 69.7605 88.6901C70.2597 89.0484 70.3743 89.7463 70.0159 90.2456L69.2478 91.3154C68.8895 91.8148 68.1914 91.9294 67.6923 91.5709ZM86.1569 85.0027C85.8435 85.5318 85.1583 85.7072 84.6292 85.3938C83.7332 84.863 77.9534 81.4388 77.3371 81.0737C76.9456 80.8419 76.4404 80.971 76.2085 81.3625C75.9766 81.7539 76.1058 82.2592 76.4973 82.4911L82.0101 85.7572L82.0102 85.7573C82.5395 86.0707 82.716 86.7538 82.4013 87.2851C82.0877 87.8144 81.4023 87.9895 80.8733 87.6764C78.8344 86.4684 77.1788 85.4876 75.3576 84.4086C74.9659 84.1767 74.4608 84.3059 74.2289 84.6973C73.997 85.0888 74.1262 85.5941 74.5177 85.826L78.5796 88.2324L78.5805 88.233C79.1101 88.5474 79.2849 89.2302 78.9709 89.7604C78.6573 90.2897 77.9721 90.465 77.4428 90.1515L75.2628 88.8601C75.2626 88.86 75.2623 88.8599 75.2621 88.8597C75.2619 88.8596 75.2616 88.8595 75.2614 88.8594L73.6706 87.9168C73.279 87.6848 72.7738 87.814 72.5419 88.2055C72.3101 88.597 72.4392 89.1023 72.8307 89.3342L74.4219 90.2769C74.4221 90.277 74.4223 90.2772 74.4225 90.2773C74.9518 90.5908 75.1283 91.2737 74.8136 91.8051C74.5001 92.3343 73.8148 92.5097 73.2856 92.1962L71.4294 91.0966C72.2251 89.8688 71.9224 88.2142 70.7214 87.3521C70.3686 87.099 69.9759 86.9414 69.5741 86.8737C70.0003 85.7343 69.6329 84.4041 68.5983 83.6614C67.9858 83.2215 67.2524 83.0696 66.5603 83.1781C66.4372 82.4579 66.0433 81.827 65.4491 81.4005C64.3315 80.5985 62.8127 80.7526 61.8746 81.7017C61.6839 81.3669 61.4208 81.0665 61.0878 80.8275C60.1591 80.161 58.9534 80.1548 58.034 80.7162L57.6565 80.4934L62.8376 71.7479L63.0843 71.8933C64.1736 72.5387 65.503 72.6732 66.735 72.1967L68.3185 71.5846C69.2247 71.2344 69.7244 71.2115 70.6208 71.6344C70.0343 72.2933 69.6861 73.1584 69.6861 74.0907V77.7433C69.6861 78.7134 70.4748 79.5032 71.4442 79.5039H71.4466C72.419 79.5039 73.3334 79.1253 74.0212 78.4379C74.4222 78.0372 74.7182 77.5594 74.8956 77.0379C75.9592 77.6678 84.7472 82.8717 85.766 83.4754C86.0223 83.6272 86.2041 83.8697 86.2779 84.1582C86.3517 84.4464 86.3087 84.7464 86.1569 85.0027ZM92.1319 79.3875L90.434 80.3934C89.6877 80.8353 88.721 80.5878 88.2791 79.8418L85.683 75.4597C85.451 75.0683 84.9455 74.9391 84.5544 75.1708C84.1629 75.4026 84.0336 75.9079 84.2654 76.2994L86.8615 80.6816C86.9104 80.7641 86.9635 80.8425 87.0184 80.919L86.2966 81.3406C86.1507 81.427 86.0104 81.5222 85.8762 81.6255L74.6846 74.9979C74.1363 74.6734 73.4411 75.069 73.4411 75.7067C73.4325 75.7559 73.5262 76.6027 72.8565 77.2722C72.4798 77.6485 71.9791 77.8559 71.4465 77.8559C71.4461 77.8559 71.4457 77.8559 71.4452 77.8559C71.3836 77.8559 71.3336 77.8052 71.3336 77.7428V74.0902C71.3336 73.1361 71.99 72.3311 72.8778 72.1063L75.6139 71.4138C76.6067 71.1629 77.1679 71.6931 78.6545 72.1962C79.6864 72.5954 80.8085 72.5708 81.8045 72.1454L82.3017 72.9848C82.5337 73.3765 83.039 73.5055 83.4303 73.2738C83.8218 73.0419 83.951 72.5366 83.7193 72.1451L82.7399 70.4921C82.2969 69.7442 82.5437 68.7804 83.2915 68.3371L84.9892 67.3314C85.0634 67.2873 85.1615 67.3099 85.2074 67.3873L92.1875 79.1693C92.2326 79.2453 92.2078 79.3425 92.1319 79.3875Z" fill="#E92D45"/>
</svg>
