<svg width="131" height="131" viewBox="0 0 131 131" fill="none" xmlns="http://www.w3.org/2000/svg">
<circle cx="65.5" cy="65.5" r="65.5" fill="#EFEFF3"/>
<g clip-path="url(#clip0)">
<path d="M91.0449 90.1606H87.4545C87.4922 89.8701 87.5092 89.5736 87.5092 89.2767C87.5092 86.7817 86.0734 84.658 83.9735 83.6746V53.9196C83.9735 53.3892 83.62 53.0357 83.0896 53.0357H69.8307V39.7767C69.8307 39.2464 69.4772 38.8929 68.9468 38.8929H45.0807C44.5502 38.8927 44.1966 39.2463 44.1966 39.7766V90.1606H39.777C39.2466 90.1606 38.8931 90.5141 38.8931 91.0445C38.8931 91.5748 39.2466 91.9285 39.777 91.9285H45.0805H47.7323H68.9466H86.36H91.0449C91.5752 91.9285 91.9288 91.5749 91.9288 91.0446C91.9288 90.5142 91.5752 90.1606 91.0449 90.1606ZM82.2055 83.1516C81.917 83.1113 81.6222 83.0891 81.3216 83.0891C80.6543 83.0891 79.9998 83.2027 79.3814 83.4152C79.2273 83.2099 78.9791 83.0891 78.6699 83.0891C78.1395 83.0891 77.786 83.4426 77.786 83.973V84.2439C77.451 84.4852 77.1395 84.7606 76.8568 85.0667C76.8122 85.1139 76.7682 85.1617 76.7252 85.2104C75.9928 84.2948 75.0493 83.6325 73.9826 83.3101C73.8294 83.1695 73.6182 83.089 73.3663 83.089C73.2678 83.089 73.1754 83.1013 73.0901 83.1246C72.8905 83.1013 72.6878 83.089 72.4824 83.089C71.9284 83.089 71.3046 83.1609 70.7992 83.3661C70.7367 83.3872 70.6745 83.409 70.613 83.4323C70.0021 82.9357 69.2877 82.5782 68.5348 82.3815C68.5269 82.3793 68.5187 82.3778 68.5108 82.3756C68.4451 82.3587 68.3793 82.3427 68.3131 82.3283C68.2594 82.3165 68.2051 82.3062 68.151 82.2961C68.1274 82.2917 68.1039 82.287 68.0803 82.283C68.0234 82.2732 67.9664 82.2645 67.9089 82.2565C67.8832 82.2529 67.8575 82.2497 67.8317 82.2464C67.779 82.2399 67.7261 82.2338 67.6728 82.2289C67.634 82.2253 67.595 82.2226 67.5561 82.2198C67.5144 82.2169 67.4729 82.2135 67.4309 82.2115C67.3469 82.2075 67.2629 82.205 67.1788 82.205C67.1138 82.205 67.0492 82.2064 66.985 82.2087C66.943 82.2102 66.901 82.2128 66.859 82.2152C66.8423 82.2162 66.8253 82.2169 66.8085 82.2181C66.0032 82.2715 65.212 82.4988 64.5269 82.9013V54.8035H68.9466H82.2055V83.1516ZM45.9645 40.6606H68.0627V53.0357H63.643C63.1127 53.0357 62.7591 53.3892 62.7591 53.9196V81.4098C62.3074 80.958 61.7867 80.5759 61.2198 80.2769C61.1697 80.2501 61.1192 80.2242 61.0684 80.199C61.0484 80.1891 61.0286 80.1789 61.0085 80.1692C60.3777 79.8633 59.6912 79.6625 58.9739 79.5874C58.9639 79.5864 58.9537 79.5855 58.9436 79.5845C58.8603 79.5762 58.7766 79.5697 58.6925 79.5648C58.6702 79.5635 58.6479 79.5621 58.6256 79.561C58.5306 79.5565 58.4353 79.5535 58.3395 79.5535C57.0239 79.5535 55.8051 79.9862 54.8038 80.7134V80.4375C54.8038 79.9072 54.4502 79.5536 53.9199 79.5536C53.3895 79.5536 53.036 79.9072 53.036 80.4375V82.2054C53.036 82.338 53.0581 82.4595 53.0995 82.5672C52.6655 83.2825 52.3664 84.0888 52.2405 84.9457C51.2228 85.062 50.2923 85.4282 49.5003 85.9756V85.7412C49.5003 85.2108 49.1468 84.8573 48.6164 84.8573C48.0861 84.8573 47.7325 85.2108 47.7325 85.7412V87.5091C47.7325 87.6123 47.7463 87.7085 47.7718 87.797C47.3335 88.5058 47.0353 89.3079 46.9124 90.1608H45.9647V40.6606H45.9645ZM52.6337 86.6432C52.6512 86.6417 52.6689 86.6406 52.6865 86.6393C52.7331 86.6357 52.7797 86.6321 52.8268 86.63C52.896 86.6269 52.9658 86.6248 53.036 86.6248C53.5663 86.6248 53.9199 86.2712 53.9199 85.7409C53.9199 83.2659 55.8645 81.3212 58.3396 81.3212C60.5494 81.3212 62.4056 82.9123 62.6708 85.1221C62.7305 85.3611 62.8725 85.5582 63.0666 85.6891C63.0788 85.6977 63.0913 85.7058 63.1041 85.7138C63.1178 85.7221 63.1313 85.7306 63.1455 85.7383C63.1781 85.7563 63.2121 85.7728 63.2475 85.787C63.2489 85.7875 63.2501 85.788 63.2515 85.7886C63.292 85.8048 63.3342 85.8184 63.3779 85.8293C63.378 85.8293 63.378 85.8293 63.3781 85.8294C63.4307 85.8469 63.4905 85.8536 63.5536 85.8516C63.8442 85.8559 64.1144 85.697 64.2619 85.476C64.2619 85.4759 64.262 85.4759 64.2621 85.4758L64.3504 85.3875C65.0576 84.5036 66.0298 83.9732 67.179 83.9732C67.7759 83.9732 68.3724 84.1404 68.9079 84.453C67.8535 85.4444 67.2556 86.7369 67.1861 88.1197C67.1814 88.2102 67.179 88.3013 67.179 88.3929C67.179 89.0076 67.2813 89.5966 67.4836 90.1608H48.7047C49.1184 88.2576 50.6939 86.8194 52.6337 86.6432ZM69.5703 90.1606C69.2326 89.5894 69.0351 88.9141 69.0351 88.3043C69.0351 87.3269 69.4204 86.4463 70.0827 85.8026C70.2093 85.6853 70.3443 85.5769 70.4868 85.4788C70.6249 85.4799 70.7638 85.4511 70.8913 85.3874C72.8359 84.3266 75.1342 85.299 75.8414 87.2436C75.9297 87.5088 76.1949 87.774 76.6369 87.774C76.7208 87.774 76.8136 87.7472 76.9068 87.6998C77.1286 87.6634 77.304 87.5006 77.4324 87.2436C77.775 86.5157 78.3053 85.9346 78.9509 85.5272C79.0902 85.4884 79.2098 85.4196 79.305 85.3262C79.9122 85.0211 80.6004 84.857 81.3217 84.857C83.7967 84.857 85.7414 86.8016 85.7414 89.2767C85.7414 89.5419 85.7414 89.8954 85.6531 90.1606H69.5703Z" fill="#E92D45"/>
<path d="M68.0621 61.875C67.5318 61.875 67.1782 62.2286 67.1782 62.7589V64.5268C67.1782 65.0572 67.5318 65.4107 68.0621 65.4107C68.5925 65.4107 68.946 65.0572 68.946 64.5268V62.7589C68.946 62.2286 68.5925 61.875 68.0621 61.875Z" fill="#E92D45"/>
<path d="M68.0621 77.7857C67.5318 77.7857 67.1782 78.1392 67.1782 78.6696V80.4375C67.1782 80.9678 67.5318 81.3214 68.0621 81.3214C68.5925 81.3214 68.946 80.9678 68.946 80.4375V78.6696C68.946 78.1392 68.5925 77.7857 68.0621 77.7857Z" fill="#E92D45"/>
<path d="M68.0621 67.1786C67.5318 67.1786 67.1782 67.5321 67.1782 68.0625V69.8303C67.1782 70.3607 67.5318 70.7142 68.0621 70.7142C68.5925 70.7142 68.946 70.3607 68.946 69.8303V68.0625C68.946 67.5321 68.5925 67.1786 68.0621 67.1786Z" fill="#E92D45"/>
<path d="M68.0621 72.4822C67.5318 72.4822 67.1782 72.8357 67.1782 73.3661V75.134C67.1782 75.6644 67.5318 76.0179 68.0621 76.0179C68.5925 76.0179 68.946 75.6644 68.946 75.134V73.3661C68.946 72.8357 68.5925 72.4822 68.0621 72.4822Z" fill="#E92D45"/>
<path d="M68.0621 56.5715C67.5318 56.5715 67.1782 56.925 67.1782 57.4554V59.2233C67.1782 59.7536 67.5318 60.1071 68.0621 60.1071C68.5925 60.1071 68.946 59.7536 68.946 59.2233V57.4554C68.946 56.925 68.5925 56.5715 68.0621 56.5715Z" fill="#E92D45"/>
<path d="M73.3668 65.4107C73.8972 65.4107 74.2507 65.0572 74.2507 64.5268V62.7589C74.2507 62.2286 73.8972 61.875 73.3668 61.875C72.8364 61.875 72.4829 62.2286 72.4829 62.7589V64.5268C72.4829 65.0572 72.8364 65.4107 73.3668 65.4107Z" fill="#E92D45"/>
<path d="M73.3668 60.1071C73.8972 60.1071 74.2507 59.7536 74.2507 59.2233V57.4554C74.2507 56.925 73.8972 56.5715 73.3668 56.5715C72.8364 56.5715 72.4829 56.925 72.4829 57.4554V59.2233C72.4829 59.7536 72.8364 60.1071 73.3668 60.1071Z" fill="#E92D45"/>
<path d="M73.3668 70.7142C73.8972 70.7142 74.2507 70.3607 74.2507 69.8303V68.0625C74.2507 67.5321 73.8972 67.1786 73.3668 67.1786C72.8364 67.1786 72.4829 67.5321 72.4829 68.0625V69.8303C72.4829 70.3607 72.8364 70.7142 73.3668 70.7142Z" fill="#E92D45"/>
<path d="M73.3668 76.0179C73.8972 76.0179 74.2507 75.6644 74.2507 75.134V73.3661C74.2507 72.8357 73.8972 72.4822 73.3668 72.4822C72.8364 72.4822 72.4829 72.8357 72.4829 73.3661V75.134C72.4829 75.6644 72.8364 76.0179 73.3668 76.0179Z" fill="#E92D45"/>
<path d="M73.3668 81.3214C73.8972 81.3214 74.2507 80.9678 74.2507 80.4375V78.6696C74.2507 78.1392 73.8972 77.7857 73.3668 77.7857C72.8364 77.7857 72.4829 78.1392 72.4829 78.6696V80.4375C72.4829 80.9678 72.8364 81.3214 73.3668 81.3214Z" fill="#E92D45"/>
<path d="M78.67 70.7142C79.2004 70.7142 79.5539 70.3607 79.5539 69.8303V68.0625C79.5539 67.5321 79.2004 67.1786 78.67 67.1786C78.1397 67.1786 77.7861 67.5321 77.7861 68.0625V69.8303C77.7861 70.3607 78.1397 70.7142 78.67 70.7142Z" fill="#E92D45"/>
<path d="M78.67 65.4107C79.2004 65.4107 79.5539 65.0572 79.5539 64.5268V62.7589C79.5539 62.2286 79.2004 61.875 78.67 61.875C78.1397 61.875 77.7861 62.2286 77.7861 62.7589V64.5268C77.7861 65.0572 78.1397 65.4107 78.67 65.4107Z" fill="#E92D45"/>
<path d="M78.67 81.3214C79.2004 81.3214 79.5539 80.9678 79.5539 80.4375V78.6696C79.5539 78.1392 79.2004 77.7857 78.67 77.7857C78.1397 77.7857 77.7861 78.1392 77.7861 78.6696V80.4375C77.7861 80.9678 78.1397 81.3214 78.67 81.3214Z" fill="#E92D45"/>
<path d="M78.67 76.0179C79.2004 76.0179 79.5539 75.6644 79.5539 75.134V73.3661C79.5539 72.8357 79.2004 72.4822 78.67 72.4822C78.1397 72.4822 77.7861 72.8357 77.7861 73.3661V75.134C77.7861 75.6644 78.1397 76.0179 78.67 76.0179Z" fill="#E92D45"/>
<path d="M78.67 60.1071C79.2004 60.1071 79.5539 59.7536 79.5539 59.2233V57.4554C79.5539 56.925 79.2004 56.5715 78.67 56.5715C78.1397 56.5715 77.7861 56.925 77.7861 57.4554V59.2233C77.7861 59.7536 78.1397 60.1071 78.67 60.1071Z" fill="#E92D45"/>
<path d="M48.6163 72.4821C49.1467 72.4821 49.5002 72.1286 49.5002 71.5982V69.8303C49.5002 69.3 49.1467 68.9465 48.6163 68.9465C48.086 68.9465 47.7324 69.3 47.7324 69.8303V71.5982C47.7323 72.1285 48.086 72.4821 48.6163 72.4821Z" fill="#E92D45"/>
<path d="M48.6163 77.7858C49.1467 77.7858 49.5002 77.4322 49.5002 76.9019V75.134C49.5002 74.6036 49.1467 74.2501 48.6163 74.2501C48.086 74.2501 47.7324 74.6036 47.7324 75.134V76.9019C47.7323 77.4321 48.086 77.7858 48.6163 77.7858Z" fill="#E92D45"/>
<path d="M48.6163 83.0893C49.1467 83.0893 49.5002 82.7358 49.5002 82.2054V80.4375C49.5002 79.9072 49.1467 79.5536 48.6163 79.5536C48.086 79.5536 47.7324 79.9072 47.7324 80.4375V82.2054C47.7323 82.7357 48.086 83.0893 48.6163 83.0893Z" fill="#E92D45"/>
<path d="M48.6163 45.9643C49.1467 45.9643 49.5002 45.6108 49.5002 45.0804V43.3125C49.5002 42.7822 49.1467 42.4286 48.6163 42.4286C48.086 42.4286 47.7324 42.7822 47.7324 43.3125V45.0804C47.7323 45.6107 48.086 45.9643 48.6163 45.9643Z" fill="#E92D45"/>
<path d="M48.6163 51.2679C49.1467 51.2679 49.5002 50.9143 49.5002 50.384V48.6161C49.5002 48.0857 49.1467 47.7322 48.6163 47.7322C48.086 47.7322 47.7324 48.0857 47.7324 48.6161V50.384C47.7323 50.9142 48.086 51.2679 48.6163 51.2679Z" fill="#E92D45"/>
<path d="M48.6163 56.5715C49.1467 56.5715 49.5002 56.2179 49.5002 55.6876V53.9197C49.5002 53.3893 49.1467 53.0358 48.6163 53.0358C48.086 53.0358 47.7324 53.3893 47.7324 53.9197V55.6876C47.7323 56.2178 48.086 56.5715 48.6163 56.5715Z" fill="#E92D45"/>
<path d="M48.6163 61.875C49.1467 61.875 49.5002 61.5215 49.5002 60.9911V59.2232C49.5002 58.6929 49.1467 58.3393 48.6163 58.3393C48.086 58.3393 47.7324 58.6929 47.7324 59.2232V60.9911C47.7323 61.5214 48.086 61.875 48.6163 61.875Z" fill="#E92D45"/>
<path d="M48.6163 67.1786C49.1467 67.1786 49.5002 66.825 49.5002 66.2947V64.5268C49.5002 63.9964 49.1467 63.6429 48.6163 63.6429C48.086 63.6429 47.7324 63.9964 47.7324 64.5268V66.2947C47.7323 66.8249 48.086 67.1786 48.6163 67.1786Z" fill="#E92D45"/>
<path d="M53.9195 51.2679C54.4499 51.2679 54.8034 50.9143 54.8034 50.384V48.6161C54.8034 48.0857 54.4499 47.7322 53.9195 47.7322C53.3892 47.7322 53.0356 48.0857 53.0356 48.6161V50.384C53.0355 50.9142 53.3892 51.2679 53.9195 51.2679Z" fill="#E92D45"/>
<path d="M53.9195 45.9643C54.4499 45.9643 54.8034 45.6108 54.8034 45.0804V43.3125C54.8034 42.7822 54.4499 42.4286 53.9195 42.4286C53.3892 42.4286 53.0356 42.7822 53.0356 43.3125V45.0804C53.0355 45.6107 53.3892 45.9643 53.9195 45.9643Z" fill="#E92D45"/>
<path d="M53.9195 61.875C54.4499 61.875 54.8034 61.5215 54.8034 60.9911V59.2232C54.8034 58.6929 54.4499 58.3393 53.9195 58.3393C53.3892 58.3393 53.0356 58.6929 53.0356 59.2232V60.9911C53.0355 61.5214 53.3892 61.875 53.9195 61.875Z" fill="#E92D45"/>
<path d="M53.9195 56.5715C54.4499 56.5715 54.8034 56.2179 54.8034 55.6876V53.9197C54.8034 53.3893 54.4499 53.0358 53.9195 53.0358C53.3892 53.0358 53.0356 53.3893 53.0356 53.9197V55.6876C53.0355 56.2178 53.3892 56.5715 53.9195 56.5715Z" fill="#E92D45"/>
<path d="M53.9195 67.1786C54.4499 67.1786 54.8034 66.825 54.8034 66.2947V64.5268C54.8034 63.9964 54.4499 63.6429 53.9195 63.6429C53.3892 63.6429 53.0356 63.9964 53.0356 64.5268V66.2947C53.0355 66.8249 53.3892 67.1786 53.9195 67.1786Z" fill="#E92D45"/>
<path d="M53.9195 72.4821C54.4499 72.4821 54.8034 72.1286 54.8034 71.5982V69.8303C54.8034 69.3 54.4499 68.9465 53.9195 68.9465C53.3892 68.9465 53.0356 69.3 53.0356 69.8303V71.5982C53.0355 72.1285 53.3892 72.4821 53.9195 72.4821Z" fill="#E92D45"/>
<path d="M53.9195 77.7858C54.4499 77.7858 54.8034 77.4322 54.8034 76.9019V75.134C54.8034 74.6036 54.4499 74.2501 53.9195 74.2501C53.3892 74.2501 53.0356 74.6036 53.0356 75.134V76.9019C53.0355 77.4321 53.3892 77.7858 53.9195 77.7858Z" fill="#E92D45"/>
<path d="M59.2233 56.5715C59.7536 56.5715 60.1071 56.2179 60.1071 55.6876V53.9197C60.1071 53.3893 59.7536 53.0358 59.2233 53.0358C58.6929 53.0358 58.3394 53.3893 58.3394 53.9197V55.6876C58.3393 56.2178 58.6929 56.5715 59.2233 56.5715Z" fill="#E92D45"/>
<path d="M59.2233 51.2679C59.7536 51.2679 60.1071 50.9143 60.1071 50.384V48.6161C60.1071 48.0857 59.7536 47.7322 59.2233 47.7322C58.6929 47.7322 58.3394 48.0857 58.3394 48.6161V50.384C58.3393 50.9142 58.6929 51.2679 59.2233 51.2679Z" fill="#E92D45"/>
<path d="M59.2233 45.9643C59.7536 45.9643 60.1071 45.6108 60.1071 45.0804V43.3125C60.1071 42.7822 59.7536 42.4286 59.2233 42.4286C58.6929 42.4286 58.3394 42.7822 58.3394 43.3125V45.0804C58.3393 45.6107 58.6929 45.9643 59.2233 45.9643Z" fill="#E92D45"/>
<path d="M59.2233 77.7858C59.7536 77.7858 60.1071 77.4322 60.1071 76.9019V75.134C60.1071 74.6036 59.7536 74.2501 59.2233 74.2501C58.6929 74.2501 58.3394 74.6036 58.3394 75.134V76.9019C58.3393 77.4321 58.6929 77.7858 59.2233 77.7858Z" fill="#E92D45"/>
<path d="M59.2233 72.4821C59.7536 72.4821 60.1071 72.1286 60.1071 71.5982V69.8303C60.1071 69.3 59.7536 68.9465 59.2233 68.9465C58.6929 68.9465 58.3394 69.3 58.3394 69.8303V71.5982C58.3393 72.1285 58.6929 72.4821 59.2233 72.4821Z" fill="#E92D45"/>
<path d="M59.2233 67.1786C59.7536 67.1786 60.1071 66.825 60.1071 66.2947V64.5268C60.1071 63.9964 59.7536 63.6429 59.2233 63.6429C58.6929 63.6429 58.3394 63.9964 58.3394 64.5268V66.2947C58.3393 66.8249 58.6929 67.1786 59.2233 67.1786Z" fill="#E92D45"/>
<path d="M59.2233 61.875C59.7536 61.875 60.1071 61.5215 60.1071 60.9911V59.2232C60.1071 58.6929 59.7536 58.3393 59.2233 58.3393C58.6929 58.3393 58.3394 58.6929 58.3394 59.2232V60.9911C58.3393 61.5214 58.6929 61.875 59.2233 61.875Z" fill="#E92D45"/>
<path d="M64.5274 51.2679C65.0578 51.2679 65.4113 50.9143 65.4113 50.384V48.6161C65.4113 48.0857 65.0578 47.7322 64.5274 47.7322C63.9971 47.7322 63.6436 48.0857 63.6436 48.6161V50.384C63.6435 50.9142 63.9971 51.2679 64.5274 51.2679Z" fill="#E92D45"/>
<path d="M64.5274 45.9643C65.0578 45.9643 65.4113 45.6108 65.4113 45.0804V43.3125C65.4113 42.7822 65.0578 42.4286 64.5274 42.4286C63.9971 42.4286 63.6436 42.7822 63.6436 43.3125V45.0804C63.6435 45.6107 63.9971 45.9643 64.5274 45.9643Z" fill="#E92D45"/>
</g>
<defs>
<clipPath id="clip0">
<rect width="53.0357" height="53.0357" fill="white" transform="translate(38.8931 38.8929)"/>
</clipPath>
</defs>
</svg>
