<svg width="40" height="40" viewBox="0 0 40 40" fill="none" xmlns="http://www.w3.org/2000/svg">
<path d="M22.9371 18.0433C21.8582 18.0433 20.9805 18.9211 20.9805 20C20.9805 21.0789 21.8582 21.9566 22.9371 21.9566C24.016 21.9566 24.8938 21.0789 24.8938 20C24.8938 18.9211 24.016 18.0433 22.9371 18.0433Z" fill="white"/>
<path d="M24.2344 12.1123V15.6407C25.2392 15.9399 26.0994 16.5773 26.6823 17.421L30.0382 16.3305C28.8969 14.1311 26.7634 12.5263 24.2344 12.1123Z" fill="white"/>
<path d="M30.8399 18.7949L27.483 19.8857C27.4839 19.9238 27.4859 19.9617 27.4859 20C27.4859 21.0388 27.1352 21.9967 26.5469 22.7634L28.6195 25.616C30.0476 24.1713 30.9307 22.187 30.9307 20C30.9307 19.5905 30.8996 19.188 30.8399 18.7949Z" fill="white"/>
<path d="M22.9375 2.9375H7.17103C6.45533 2.9375 5.87509 3.51774 5.87509 4.23344C5.87509 4.94914 6.45533 5.52938 7.17103 5.52938H13.9074C12.4862 6.41946 11.2047 7.51259 10.1043 8.76845H1.29594C0.580235 8.76853 0 9.34884 0 10.0645C0 10.7803 0.580235 11.3605 1.29594 11.3605H8.22955C6.73439 13.8961 5.87501 16.8494 5.87501 20C5.87501 23.6659 7.03744 27.0654 9.0126 29.8497H5.33556C4.61985 29.8497 4.03962 30.43 4.03962 31.1457C4.03962 31.8614 4.61985 32.4416 5.33556 32.4416H11.2746C12.0826 33.1996 12.9642 33.8797 13.9074 34.4705H1.42961C0.713908 34.4705 0.133672 35.0507 0.133672 35.7664C0.133672 36.4821 0.713908 37.0623 1.42961 37.0623H22.9375C32.3459 37.0623 40 29.4081 40 19.9999C40 10.5917 32.3458 2.9375 22.9375 2.9375ZM29.2327 28.5047C29.2089 28.5248 29.1852 28.5451 29.1595 28.5636C29.1306 28.5847 29.101 28.6043 29.0711 28.6226C27.3395 29.8578 25.2219 30.5853 22.9375 30.5853C20.6532 30.5853 18.5357 29.8578 16.804 28.6226C16.774 28.6043 16.7445 28.5847 16.7156 28.5636C16.69 28.545 16.6663 28.5247 16.6424 28.5047C14.0412 26.5742 12.3521 23.4807 12.3521 20C12.3521 14.1631 17.1007 9.41454 22.9375 9.41454C28.7744 9.41454 33.523 14.1631 33.523 20C33.523 23.4808 31.834 26.5742 29.2327 28.5047Z" fill="white"/>
<path d="M15.8359 16.3304L19.1918 17.4209C19.7749 16.5773 20.6349 15.9398 21.6398 15.6405V12.1122C19.1109 12.5262 16.9773 14.131 15.8359 16.3304Z" fill="white"/>
<path d="M24.4527 24.2886C23.9788 24.4564 23.4695 24.5487 22.9387 24.5487C22.4081 24.5487 21.8986 24.4564 21.4247 24.2886L19.3516 27.1419C20.4309 27.6862 21.6495 27.9933 22.9387 27.9933C24.2278 27.9933 25.4464 27.6862 26.5258 27.1419L24.4527 24.2886Z" fill="white"/>
<path d="M18.3902 20C18.3902 19.9617 18.3921 19.9238 18.3931 19.8857L15.0361 18.7949C14.9764 19.188 14.9453 19.5905 14.9453 20C14.9453 22.187 15.8285 24.1714 17.2566 25.6162L19.3292 22.7634C18.741 21.9968 18.3902 21.0388 18.3902 20Z" fill="white"/>
</svg>
