<svg width="78" height="78" viewBox="0 0 78 78" fill="none" xmlns="http://www.w3.org/2000/svg">
<path d="M77.553 0.446215C77.2672 0.16057 76.8797 0 76.4755 0L38.9998 0.00198047C38.1586 0.00198047 37.4766 0.684176 37.4766 1.52542V5.88199L23.0361 9.75137C22.2233 9.96922 21.741 10.8045 21.9588 11.6171L29.443 39.5481L22.9686 46.0226C22.1445 44.8194 20.761 44.0281 19.1959 44.0281H4.57138C2.05131 44.0281 0.0012207 46.0783 0.0012207 48.5983V73.4297C0.0012207 75.9498 2.05131 78 4.57138 78H19.1961C21.337 78 23.138 76.5198 23.6316 74.5296L25.4429 76.1093C26.8413 77.3286 28.6329 78.0002 30.4883 78.0002H76.4758C77.317 78.0002 77.9992 77.318 77.9992 76.4767V1.52344C77.9989 1.11942 77.8387 0.731859 77.553 0.446215ZM20.7192 73.4298C20.7192 74.2697 20.0358 74.9533 19.1958 74.9533H4.57123C3.7312 74.9533 3.04779 74.2699 3.04779 73.4298V48.5984C3.04779 47.7584 3.7312 47.075 4.57123 47.075H10.3601V64.6242C10.3601 65.4655 11.0423 66.1477 11.8836 66.1477C12.7248 66.1477 13.407 65.4655 13.407 64.6242V47.075H19.1959C20.0359 47.075 20.7194 47.7584 20.7194 48.5984V73.4298H20.7192ZM25.2961 12.3001L37.4766 9.03627V14.6814L36.4556 14.955C36.0651 15.0596 35.7325 15.3148 35.5305 15.6647C35.3285 16.0147 35.2737 16.4304 35.3783 16.8207C35.9638 19.0055 34.6626 21.2591 32.4779 21.8446C32.0871 21.9494 31.7539 22.205 31.5521 22.5557C31.3502 22.9063 31.2958 23.3228 31.4014 23.7134L37.3396 45.7024H34.2821L32.7064 39.5379C32.6563 39.3417 32.5685 39.1609 32.451 39.0037L25.2961 12.3001ZM37.4766 21.6677V34.5226L34.698 24.2341C35.8587 23.6348 36.8085 22.7381 37.4766 21.6677ZM59.3629 74.9531H30.4879C29.369 74.9531 28.2884 74.5482 27.445 73.8128L23.7661 70.6043V49.5341L30.4171 42.8831L31.6234 47.6027C31.7958 48.2771 32.4032 48.7488 33.0993 48.7488L63.0507 48.7506C64.2268 48.7506 65.1835 49.7073 65.1835 50.8834C65.1835 52.0595 64.2268 53.0162 63.0507 53.0162H47.7036C46.8623 53.0162 46.1801 53.6984 46.1801 54.5397C46.1801 55.3809 46.8623 56.0631 47.7036 56.0631H67.819C68.9951 56.0631 69.9518 57.0198 69.9518 58.1959C69.9518 59.372 68.9951 60.3287 67.819 60.3287H47.7036C46.8623 60.3287 46.1801 61.0109 46.1801 61.8522C46.1801 62.6934 46.8623 63.3756 47.7036 63.3756H64.5593C65.7354 63.3756 66.6921 64.3323 66.6921 65.5084C66.6921 66.6845 65.7354 67.6412 64.5593 67.6412H47.7036C46.8623 67.6412 46.1801 68.3234 46.1801 69.1647C46.1801 70.0059 46.8623 70.6881 47.7036 70.6881H59.3629C60.539 70.6881 61.4957 71.6448 61.4957 72.8209C61.4955 73.9964 60.5388 74.9531 59.3629 74.9531ZM74.9524 74.9531H74.9522H64.0811C64.3765 74.3022 64.5424 73.5805 64.5424 72.8203C64.5424 72.0601 64.3765 71.3385 64.0811 70.6875H64.5593C67.4153 70.6875 69.7389 68.364 69.7389 65.508C69.7389 64.6749 69.54 63.8878 69.189 63.1898C71.3822 62.5874 72.9984 60.5772 72.9984 58.1956C72.9984 57.0402 72.6179 55.9722 71.976 55.1099V35.8018C71.976 34.9606 71.2938 34.2784 70.4526 34.2784C69.6114 34.2784 68.9292 34.9606 68.9292 35.8018V53.1373C68.5711 53.0589 68.1999 53.0162 67.8187 53.0162H67.7688C68.0641 52.3653 68.23 51.6436 68.23 50.8834C68.23 48.0273 65.9065 45.7039 63.0505 45.7039H60.6016C63.2019 44.5887 65.0282 42.0041 65.0282 39C65.0282 34.9798 61.7577 31.7091 57.7375 31.7091C53.7175 31.7091 50.4468 34.9798 50.4468 39C50.4468 42.0041 52.2733 44.5887 54.8735 45.7039H46.5459V16.7369C49.2674 16.1439 51.4148 13.9966 52.0077 11.275H63.4672C64.0601 13.9966 66.2075 16.1439 68.929 16.7369V21.4733C68.929 22.3146 69.6112 22.9967 70.4524 22.9967C71.2937 22.9967 71.9759 22.3146 71.9759 21.4733V15.3768C71.9759 14.5356 71.2937 13.8534 70.4524 13.8534C68.1906 13.8534 66.3507 12.0132 66.3507 9.75152C66.3507 8.91028 65.6685 8.22809 64.8273 8.22809H50.6477C49.8065 8.22809 49.1243 8.91028 49.1243 9.75152C49.1243 12.0134 47.2843 13.8534 45.0226 13.8534C44.1814 13.8534 43.4992 14.5356 43.4992 15.3768V45.7037H40.5236V3.04855L74.9524 3.04688V74.9531ZM57.7378 43.244C55.3977 43.244 53.494 41.3402 53.494 39.0002C53.494 36.6602 55.3978 34.7562 57.7378 34.7562C60.0778 34.7562 61.9817 36.66 61.9817 39C61.9817 41.34 60.078 43.244 57.7378 43.244Z" fill="#E92D45"/>
</svg>
