<svg width="66" height="66" viewBox="0 0 66 66" fill="none" xmlns="http://www.w3.org/2000/svg">
<path d="M26.5148 15.4575C28.1653 14.7654 28.8575 12.7954 28.1121 11.1981L25.5032 5.71414C24.7578 4.17064 22.9475 3.47795 21.3503 4.17064C16.8246 6.08737 12.9379 8.58977 9.84987 11.6246C6.06965 15.1913 3.51401 19.291 2.1297 23.8166C0.745396 28.396 0 34.6248 0 42.558V58.9035C0 60.6605 1.43755 62.098 3.19455 62.098H24.1189C25.8759 62.098 27.3134 60.6605 27.3134 58.9035V37.9791C27.3134 36.2216 25.8759 34.7846 24.1189 34.7846H14.1093C14.2158 29.4065 15.4936 25.0944 17.8363 21.8461C19.753 19.2383 22.6281 17.1086 26.5148 15.4575Z" fill="#E9E9E9"/>
<path d="M64.1022 15.4573C65.7527 14.7651 66.4443 12.7951 65.6994 11.1979L63.0906 5.76765C62.3452 4.22362 60.5349 3.53147 58.9376 4.22362C54.4653 6.14035 50.6313 8.64275 47.4905 11.6243C43.7097 15.2448 41.1014 19.3445 39.7166 23.8701C38.3322 28.342 37.6406 34.5719 37.6406 42.5583V58.9037C37.6406 60.6607 39.0782 62.0983 40.8352 62.0983H61.7595C63.5165 62.0983 64.9541 60.6607 64.9541 58.9037V37.9794C64.9541 36.2219 63.5165 34.7849 61.7595 34.7849H51.6967C51.8031 29.4068 53.0815 25.0947 55.4236 21.8464C57.3404 19.238 60.2155 17.1083 64.1022 15.4573Z" fill="#E9E9E9"/>
</svg>
