<svg width="190" height="146" viewBox="0 0 190 146" fill="none" xmlns="http://www.w3.org/2000/svg">
<path d="M10.788 120.661L8.649 110.71H8.587L6.448 120.661H10.788ZM11.377 106.866L17.236 129H12.586L11.563 124.319H5.673L4.65 129H0L5.859 106.866H11.377ZM19.1786 106.866V129H23.2706V111.33H23.3326L27.2696 129H30.7416L34.6786 111.33H34.7406V129H38.8326V106.866H32.2296L29.0366 122.49H28.9746L25.8126 106.866H19.1786ZM51.5809 120.661L49.4419 110.71H49.3799L47.2409 120.661H51.5809ZM52.1699 106.866L58.0289 129H53.3789L52.3559 124.319H46.4659L45.4429 129H40.7929L46.6519 106.866H52.1699ZM65.0244 106.866H59.8784V129H63.9704V113.5H64.0324L69.4884 129H74.5724V106.866H70.4804V122.025H70.4184L65.0244 106.866ZM87.2272 120.661L85.0882 110.71H85.0262L82.8872 120.661H87.2272ZM87.8162 106.866L93.6752 129H89.0252L88.0022 124.319H82.1122L81.0892 129H76.4392L82.2982 106.866H87.8162ZM106.787 106.866H92.6515V110.524H97.4875V129H101.951V110.524H106.787V106.866ZM121.472 125.714V110.152H123.363C124.211 110.152 124.882 110.317 125.378 110.648C125.895 110.958 126.277 111.433 126.525 112.074C126.794 112.694 126.97 113.479 127.052 114.43C127.135 115.381 127.176 116.486 127.176 117.747C127.176 119.256 127.125 120.516 127.021 121.529C126.939 122.542 126.753 123.358 126.463 123.978C126.195 124.598 125.823 125.042 125.347 125.311C124.872 125.58 124.242 125.714 123.456 125.714H121.472ZM117.008 106.866V129H124.045C125.533 129 126.763 128.773 127.734 128.318C128.706 127.863 129.481 127.171 130.059 126.241C130.638 125.311 131.041 124.133 131.268 122.707C131.516 121.26 131.64 119.566 131.64 117.623C131.64 115.99 131.547 114.513 131.361 113.19C131.175 111.867 130.814 110.741 130.276 109.811C129.76 108.86 129.026 108.137 128.075 107.641C127.125 107.124 125.874 106.866 124.324 106.866H117.008ZM134.902 106.866V129H139.366V119.638H141.753C142.683 119.638 143.344 119.886 143.737 120.382C144.13 120.878 144.347 121.56 144.388 122.428L144.512 126.675C144.533 127.109 144.574 127.533 144.636 127.946C144.698 128.339 144.843 128.69 145.07 129H149.906V128.814C149.493 128.587 149.224 128.163 149.1 127.543C149.017 126.923 148.955 126.024 148.914 124.846C148.893 124.247 148.873 123.709 148.852 123.234C148.831 122.738 148.8 122.283 148.759 121.87C148.635 120.63 148.315 119.731 147.798 119.173C147.281 118.615 146.465 118.253 145.349 118.088V118.026C146.61 117.757 147.54 117.158 148.139 116.228C148.738 115.277 149.038 114.058 149.038 112.57C149.038 110.648 148.521 109.222 147.488 108.292C146.455 107.341 145.008 106.866 143.148 106.866H134.902ZM139.366 116.538V110.152H141.474C143.541 110.152 144.574 111.175 144.574 113.221C144.574 114.42 144.285 115.277 143.706 115.794C143.127 116.29 142.301 116.538 141.226 116.538H139.366ZM152.655 129H157.119V106.866H152.655V129ZM164.057 106.866H159.283L164.367 129H170.102L175.186 106.866H170.567L167.281 123.234H167.188L164.057 106.866ZM189.494 106.866H177.125V129H189.804V125.342H181.589V119.39H189.029V115.732H181.589V110.524H189.494V106.866Z" fill="#FF1440"/>
<path d="M6.644 135.168V143H5.61V136.07H2.717L2.563 140.481C2.53367 141.302 2.365 141.955 2.057 142.439C1.75633 142.923 1.32 143.165 0.748 143.165C0.513333 143.165 0.264 143.114 0 143.011V142.131C0.117333 142.204 0.304333 142.241 0.561 142.241C0.773667 142.241 0.942333 142.193 1.067 142.098C1.199 141.995 1.31267 141.768 1.408 141.416C1.51067 141.064 1.56933 140.573 1.584 139.942L1.727 135.168H6.644ZM8.39927 143V135.168H9.43327V141.801H9.45527L13.2943 135.168H14.6033V143H13.5693V136.345H13.5473L9.69727 143H8.39927ZM21.9478 143H20.9138V139.513C20.1144 139.696 19.3884 139.788 18.7358 139.788C18.2811 139.788 17.8778 139.733 17.5258 139.623C17.1811 139.506 16.9134 139.366 16.7228 139.205C16.5394 139.036 16.3891 138.838 16.2718 138.611C16.1544 138.384 16.0774 138.178 16.0408 137.995C16.0041 137.804 15.9858 137.606 15.9858 137.401V135.168H17.0198V137.313C17.0198 137.467 17.0271 137.606 17.0418 137.731C17.0638 137.848 17.1078 137.984 17.1738 138.138C17.2398 138.285 17.3314 138.409 17.4488 138.512C17.5661 138.615 17.7348 138.703 17.9548 138.776C18.1748 138.842 18.4351 138.875 18.7358 138.875C19.3958 138.875 20.1218 138.787 20.9138 138.611V135.168H21.9478V143ZM29.8787 135.168V143H28.8447V139.337H24.7087V143H23.6747V135.168H24.7087V138.435H28.8447V135.168H29.8787ZM38.4331 135.168H39.4671V143H38.4331V135.168ZM37.4541 140.679C37.4541 141.412 37.2415 141.984 36.8161 142.395C36.3981 142.798 35.8078 143 35.0451 143H31.6131V135.168H32.6471V138.347H35.0451C35.8151 138.347 36.4091 138.552 36.8271 138.963C37.2451 139.366 37.4541 139.938 37.4541 140.679ZM36.4091 140.679C36.4091 139.718 35.8371 139.238 34.6931 139.238H32.6471V142.098H34.6931C35.8371 142.098 36.4091 141.625 36.4091 140.679ZM45.9472 133.111C45.8738 133.573 45.6942 133.943 45.4082 134.222C45.1295 134.493 44.7592 134.629 44.2972 134.629C43.8498 134.629 43.4722 134.49 43.1642 134.211C42.8635 133.925 42.6838 133.558 42.6252 133.111H43.1862C43.3548 133.683 43.7215 133.969 44.2862 133.969C44.8288 133.969 45.1955 133.683 45.3862 133.111H45.9472ZM41.1952 143V135.168H42.2292V141.801H42.2512L46.0902 135.168H47.3992V143H46.3652V136.345H46.3432L42.4932 143H41.1952ZM55.4842 135.168L58.5422 143H57.3872L56.5182 140.602H53.2292L52.3382 143H51.2382L54.3182 135.168H55.4842ZM56.2102 139.777L54.8792 136.158L53.5262 139.777H56.2102ZM59.328 135.168H62.672C63.3907 135.168 63.9847 135.326 64.454 135.641C64.9307 135.956 65.169 136.451 65.169 137.126C65.169 137.515 65.0627 137.863 64.85 138.171C64.6447 138.472 64.366 138.684 64.014 138.809C64.498 138.919 64.8683 139.146 65.125 139.491C65.389 139.836 65.521 140.268 65.521 140.789C65.521 142.263 64.531 143 62.551 143H59.328V135.168ZM60.34 136.048V138.523H62.199C62.4117 138.523 62.5913 138.519 62.738 138.512C62.892 138.497 63.0643 138.468 63.255 138.424C63.4457 138.38 63.596 138.318 63.706 138.237C63.8233 138.149 63.9223 138.024 64.003 137.863C64.091 137.702 64.135 137.507 64.135 137.28C64.135 137.053 64.0983 136.862 64.025 136.708C63.9517 136.547 63.8637 136.426 63.761 136.345C63.6583 136.257 63.5153 136.191 63.332 136.147C63.156 136.103 62.9947 136.077 62.848 136.07C62.7087 136.055 62.5253 136.048 62.298 136.048H60.34ZM60.34 139.337V142.131H62.408C62.6647 142.131 62.8737 142.127 63.035 142.12C63.1963 142.105 63.376 142.072 63.574 142.021C63.7793 141.97 63.9407 141.896 64.058 141.801C64.1753 141.698 64.2743 141.555 64.355 141.372C64.4357 141.181 64.476 140.954 64.476 140.69C64.476 140.47 64.4467 140.279 64.388 140.118C64.3367 139.957 64.245 139.828 64.113 139.733C63.9883 139.638 63.8673 139.561 63.75 139.502C63.64 139.443 63.4787 139.403 63.266 139.381C63.0533 139.359 62.8883 139.348 62.771 139.348C62.6537 139.341 62.474 139.337 62.232 139.337H60.34ZM72.2923 135.168V136.07H69.6633V143H68.6293V136.07H66.0003V135.168H72.2923ZM76.2813 134.981C77.4693 134.981 78.3933 135.355 79.0533 136.103C79.7133 136.844 80.0433 137.815 80.0433 139.018C80.0433 140.228 79.717 141.225 79.0643 142.01C78.4116 142.795 77.4876 143.187 76.2923 143.187C75.6836 143.187 75.1373 143.077 74.6533 142.857C74.1693 142.637 73.7733 142.333 73.4653 141.944C73.1646 141.555 72.9336 141.112 72.7723 140.613C72.6183 140.114 72.5413 139.575 72.5413 138.996C72.5413 137.771 72.8786 136.796 73.5533 136.07C74.2353 135.344 75.1446 134.981 76.2813 134.981ZM76.2813 135.883C75.4086 135.883 74.7376 136.191 74.2683 136.807C73.8063 137.416 73.5753 138.171 73.5753 139.073C73.5753 140.056 73.821 140.84 74.3123 141.427C74.811 142.006 75.4746 142.296 76.3033 142.296C77.1246 142.296 77.781 142.003 78.2723 141.416C78.7636 140.829 79.0093 140.048 79.0093 139.073C79.0093 138.105 78.76 137.331 78.2613 136.752C77.77 136.173 77.11 135.883 76.2813 135.883ZM81.3497 135.168H82.7797L85.2987 141.801L87.7297 135.168H89.1707V143H88.1917V136.466L85.7387 143H84.8367L82.3397 136.466V143H81.3497V135.168ZM94.2208 134.981C95.4088 134.981 96.3328 135.355 96.9928 136.103C97.6528 136.844 97.9828 137.815 97.9828 139.018C97.9828 140.228 97.6564 141.225 97.0038 142.01C96.3511 142.795 95.4271 143.187 94.2318 143.187C93.6231 143.187 93.0768 143.077 92.5928 142.857C92.1088 142.637 91.7128 142.333 91.4048 141.944C91.1041 141.555 90.8731 141.112 90.7118 140.613C90.5578 140.114 90.4808 139.575 90.4808 138.996C90.4808 137.771 90.8181 136.796 91.4928 136.07C92.1748 135.344 93.0841 134.981 94.2208 134.981ZM94.2208 135.883C93.3481 135.883 92.6771 136.191 92.2078 136.807C91.7458 137.416 91.5148 138.171 91.5148 139.073C91.5148 140.056 91.7604 140.84 92.2518 141.427C92.7504 142.006 93.4141 142.296 94.2428 142.296C95.0641 142.296 95.7204 142.003 96.2118 141.416C96.7031 140.829 96.9488 140.048 96.9488 139.073C96.9488 138.105 96.6994 137.331 96.2008 136.752C95.7094 136.173 95.0494 135.883 94.2208 135.883ZM100.312 138.336H102.93C103.7 138.336 104.294 138.541 104.712 138.952C105.13 139.363 105.339 139.938 105.339 140.679C105.339 141.412 105.127 141.984 104.701 142.395C104.283 142.798 103.693 143 102.93 143H99.2782V135.168H104.646V136.07H100.312V138.336ZM104.305 140.679C104.305 139.718 103.733 139.238 102.589 139.238H100.312V142.098H102.589C103.733 142.098 104.305 141.625 104.305 140.679ZM106.808 143V135.168H107.842V141.801H107.864L111.703 135.168H113.012V143H111.978V136.345H111.956L108.106 143H106.808ZM120.522 135.168V143H119.488V136.07H116.595L116.441 140.481C116.412 141.302 116.243 141.955 115.935 142.439C115.634 142.923 115.198 143.165 114.626 143.165C114.391 143.165 114.142 143.114 113.878 143.011V142.131C113.995 142.204 114.182 142.241 114.439 142.241C114.652 142.241 114.82 142.193 114.945 142.098C115.077 141.995 115.191 141.768 115.286 141.416C115.389 141.064 115.447 140.573 115.462 139.942L115.605 135.168H120.522ZM128.118 140.679C128.118 141.412 127.906 141.984 127.48 142.395C127.062 142.798 126.472 143 125.709 143H122.277V135.168H123.311V138.347H125.709C126.479 138.347 127.073 138.552 127.491 138.963C127.909 139.366 128.118 139.938 128.118 140.679ZM127.073 140.679C127.073 139.718 126.501 139.238 125.357 139.238H123.311V142.098H125.357C126.501 142.098 127.073 141.625 127.073 140.679ZM138.83 135.168L135.53 138.314L138.962 143H137.642L134.804 139.018L133.506 140.25V143H132.472V135.168H133.506V139.051L137.477 135.168H138.83ZM143.097 135.168L146.155 143H145L144.131 140.602H140.842L139.951 143H138.851L141.931 135.168H143.097ZM143.823 139.777L142.492 136.158L141.139 139.777H143.823ZM157.16 143H155.862L153.002 139.106L152.078 140.074V143H151.066V140.074L150.142 139.106L147.282 143H145.984L149.46 138.38L146.336 135.168H147.634L151.066 138.809V135.168H152.078V138.809L155.51 135.168H156.808L153.684 138.38L157.16 143ZM164.838 144.947H163.837V143H158.172V144.947H157.171V142.098H157.941C158.242 141.563 158.488 140.796 158.678 139.799C158.869 138.794 158.964 137.757 158.964 136.686V135.168H163.969V142.098H164.838V144.947ZM162.935 142.098V136.07H159.976V137.137C159.976 138.083 159.888 139.022 159.712 139.953C159.544 140.877 159.335 141.592 159.085 142.098H162.935ZM169.18 134.981C170.368 134.981 171.292 135.355 171.952 136.103C172.612 136.844 172.942 137.815 172.942 139.018C172.942 140.228 172.615 141.225 171.963 142.01C171.31 142.795 170.386 143.187 169.191 143.187C168.582 143.187 168.036 143.077 167.552 142.857C167.068 142.637 166.672 142.333 166.364 141.944C166.063 141.555 165.832 141.112 165.671 140.613C165.517 140.114 165.44 139.575 165.44 138.996C165.44 137.771 165.777 136.796 166.452 136.07C167.134 135.344 168.043 134.981 169.18 134.981ZM169.18 135.883C168.307 135.883 167.636 136.191 167.167 136.807C166.705 137.416 166.474 138.171 166.474 139.073C166.474 140.056 166.719 140.84 167.211 141.427C167.709 142.006 168.373 142.296 169.202 142.296C170.023 142.296 170.679 142.003 171.171 141.416C171.662 140.829 171.908 140.048 171.908 139.073C171.908 138.105 171.658 137.331 171.16 136.752C170.668 136.173 170.008 135.883 169.18 135.883ZM174.248 135.168H175.678L178.197 141.801L180.628 135.168H182.069V143H181.09V136.466L178.637 143H177.735L175.238 136.466V143H174.248V135.168ZM185.799 140.954L182.939 135.168H184.072L186.36 139.942L188.604 135.168H189.715L186.668 141.405C186.353 142.05 186.027 142.509 185.689 142.78C185.359 143.051 184.993 143.187 184.589 143.187C184.237 143.187 183.915 143.121 183.621 142.989V142.109C183.834 142.241 184.127 142.307 184.501 142.307C184.934 142.307 185.323 141.948 185.667 141.229L185.799 140.954Z" fill="#303030"/>
<path d="M44.7764 89V77.9441H12.1615C12.1615 64.1242 31.5093 17.1366 77.9441 12.1615V89H89V0C25.4286 0 0 51.9627 0 89H44.7764Z" fill="#303030"/>
<path d="M106.5 83.5V5.72523C120.587 6.84206 138.722 12.1974 153.928 23.6815C169.964 35.7921 182.894 54.8061 184.361 83.5H106.5Z" stroke="#E92D45" stroke-width="11"/>
</svg>
