<svg width="17" height="14" viewBox="0 0 17 14" fill="none" xmlns="http://www.w3.org/2000/svg">
<path d="M15.4609 5.73828L15.0742 4.75391L14.3711 2.99609C13.7734 1.48438 12.332 0.5 10.7148 0.5H6.25C4.63281 0.5 3.19141 1.48438 2.59375 2.99609L1.89062 4.75391L1.50391 5.73828C0.660156 6.05469 0.0625 6.86328 0.0625 7.8125V9.5C0.0625 10.0977 0.273438 10.5898 0.625 10.9766V12.875C0.625 13.5078 1.11719 14 1.75 14H2.875C3.47266 14 4 13.5078 4 12.875V11.75H13V12.875C13 13.5078 13.4922 14 14.125 14H15.25C15.8477 14 16.375 13.5078 16.375 12.875V10.9766C16.6914 10.5898 16.9375 10.0977 16.9375 9.5V7.8125C16.9375 6.86328 16.3047 6.05469 15.4609 5.73828ZM4.66797 3.83984C4.94922 3.17188 5.54688 2.75 6.25 2.75H10.7148C11.418 2.75 12.0156 3.17188 12.2969 3.83984L13 5.5625H4L4.66797 3.83984ZM2.875 9.5C2.17188 9.5 1.75 9.07812 1.75 8.375C1.75 7.70703 2.17188 7.25 2.875 7.25C3.54297 7.25 4.5625 8.26953 4.5625 8.9375C4.5625 9.60547 3.54297 9.5 2.875 9.5ZM14.125 9.5C13.4219 9.5 12.4375 9.60547 12.4375 8.9375C12.4375 8.26953 13.4219 7.25 14.125 7.25C14.793 7.25 15.25 7.70703 15.25 8.375C15.25 9.07812 14.793 9.5 14.125 9.5Z" fill="#676B73"/>
</svg>
