<svg width="16" height="21" viewBox="0 0 16 21" fill="none" xmlns="http://www.w3.org/2000/svg">
<path d="M11.0039 11.9375C9.98438 11.9375 9.52734 12.5 7.875 12.5C6.1875 12.5 5.73047 11.9375 4.71094 11.9375C2.10938 11.9375 0 14.082 0 16.6836V17.5625C0 18.5117 0.738281 19.25 1.6875 19.25H14.0625C14.9766 19.25 15.75 18.5117 15.75 17.5625V16.6836C15.75 14.082 13.6055 11.9375 11.0039 11.9375ZM14.0625 17.5625H1.6875V16.6836C1.6875 14.9961 3.02344 13.625 4.71094 13.625C5.23828 13.625 6.04688 14.1875 7.875 14.1875C9.66797 14.1875 10.4766 13.625 11.0039 13.625C12.6914 13.625 14.0625 14.9961 14.0625 16.6836V17.5625ZM7.875 11.375C10.6523 11.375 12.9375 9.125 12.9375 6.3125C12.9375 3.53516 10.6523 1.25 7.875 1.25C5.0625 1.25 2.8125 3.53516 2.8125 6.3125C2.8125 9.125 5.0625 11.375 7.875 11.375ZM7.875 2.9375C9.70312 2.9375 11.25 4.48438 11.25 6.3125C11.25 8.17578 9.70312 9.6875 7.875 9.6875C6.01172 9.6875 4.5 8.17578 4.5 6.3125C4.5 4.48438 6.01172 2.9375 7.875 2.9375Z" fill="#4C4C4C"/>
</svg>
