<svg width="16" height="16" viewBox="0 0 16 16" fill="none" xmlns="http://www.w3.org/2000/svg">
<path d="M11.5625 4.1875L10.25 5.5C9.78125 5.96875 10.125 6.75 10.7812 6.75H15C15.4062 6.75 15.75 6.4375 15.75 6V1.8125C15.75 1.15625 14.9375 0.8125 14.4688 1.28125L13.3438 2.40625C11.9375 1.09375 10.0625 0.25 8 0.25C4.1875 0.25 1.03125 2.96875 0.375 6.5625C0.3125 6.8125 0.5 7 0.75 7H2.53125C2.6875 7 2.84375 6.90625 2.90625 6.71875C3.46875 4.4375 5.5625 2.78125 7.96875 2.75C9.3125 2.75 10.5938 3.28125 11.5625 4.1875ZM1 9.25C0.5625 9.25 0.25 9.59375 0.25 10V14.2188C0.25 14.875 1.03125 15.2188 1.5 14.75L2.625 13.625C4.03125 14.9375 5.90625 15.75 8 15.75C11.7812 15.75 14.9375 13.0625 15.5938 9.46875C15.6562 9.21875 15.4688 9.03125 15.2188 9.03125H13.4375C13.2812 9.03125 13.125 9.125 13.0625 9.3125C12.5 11.5938 10.4062 13.25 8 13.2812C6.65625 13.2812 5.375 12.75 4.40625 11.8438L5.71875 10.5312C6.1875 10.0625 5.84375 9.25 5.1875 9.25H1Z" fill="#E92D45"/>
</svg>
