<svg width="85" height="85" viewBox="0 0 85 85" fill="none" xmlns="http://www.w3.org/2000/svg">
<circle cx="42.5" cy="42.5" r="42.5" fill="#EFEFF3"/>
<g clip-path="url(#clip0)">
<path d="M33.3658 45.0269C34.6585 45.0269 35.908 44.9441 37.0905 44.7901V31.9487C35.9082 31.7948 34.6585 31.712 33.3658 31.712C25.9846 31.712 20.001 34.401 20.001 37.7181V39.0207C20.001 42.3377 25.9846 45.0269 33.3658 45.0269Z" fill="#E92D45"/>
<path d="M33.3658 51.7323C34.6585 51.7323 35.908 51.6495 37.0905 51.4958V47.7317C35.9078 47.8856 34.6589 47.9694 33.3658 47.9694C26.9228 47.9694 21.5452 45.9205 20.2821 43.1935C20.0981 43.5907 20.001 44.002 20.001 44.4236V45.7262C20.001 49.0433 25.9846 51.7323 33.3658 51.7323Z" fill="#E92D45"/>
<path d="M37.0895 54.7297V54.4371C35.9068 54.591 34.6579 54.6749 33.3648 54.6749C26.9219 54.6749 21.5442 52.6259 20.2811 49.8989C20.0971 50.296 20 50.7073 20 51.129V52.4315C20 55.7487 25.9837 58.4377 33.3648 58.4377C34.8409 58.4377 36.2607 58.3299 37.5883 58.1313C37.2592 57.4643 37.0895 56.7609 37.0895 56.0321V54.7297Z" fill="#E92D45"/>
<path d="M52.6359 21.5398C45.2548 21.5398 39.2711 24.2288 39.2711 27.5459V28.8484C39.2711 32.1656 45.2548 34.8545 52.6359 34.8545C60.017 34.8545 66.0008 32.1656 66.0008 28.8484V27.5459C66.0008 24.2288 60.017 21.5398 52.6359 21.5398Z" fill="#E92D45"/>
<path d="M52.6359 37.7971C46.193 37.7971 40.8154 35.7482 39.5522 33.0211C39.3682 33.4182 39.2711 33.8295 39.2711 34.2513V35.5538C39.2711 38.8709 45.2548 41.5599 52.6359 41.5599C60.017 41.5599 66.0008 38.8709 66.0008 35.5538V34.2513C66.0008 33.8295 65.9036 33.4182 65.7197 33.0211C64.4565 35.7482 59.0789 37.7971 52.6359 37.7971Z" fill="#E92D45"/>
<path d="M52.6359 44.5027C46.193 44.5027 40.8154 42.4537 39.5522 39.7267C39.3682 40.1238 39.2711 40.5351 39.2711 40.9568V42.2594C39.2711 45.5766 45.2548 48.2656 52.6359 48.2656C60.017 48.2656 66.0008 45.5766 66.0008 42.2594V40.9568C66.0008 40.5351 65.9036 40.1238 65.7197 39.7267C64.4565 42.4538 59.0789 44.5027 52.6359 44.5027Z" fill="#E92D45"/>
<path d="M52.6359 51.5703C46.193 51.5703 40.8154 49.5213 39.5522 46.7943C39.3682 47.1915 39.2711 47.6027 39.2711 48.0243V49.327C39.2711 52.6441 45.2548 55.3331 52.6359 55.3331C60.017 55.3331 66.0008 52.6441 66.0008 49.327V48.0243C66.0008 47.6027 65.9036 47.1913 65.7197 46.7943C64.4565 49.5212 59.0789 51.5703 52.6359 51.5703Z" fill="#E92D45"/>
<path d="M52.6359 58.2756C46.193 58.2756 40.8154 56.2267 39.5522 53.4997C39.3682 53.897 39.2711 54.3084 39.2711 54.7298V56.0323C39.2711 59.3495 45.2548 62.0384 52.6359 62.0384C60.017 62.0384 66.0008 59.3495 66.0008 56.0323V54.7297C66.0008 54.308 65.9036 53.8966 65.7197 53.4996C64.4565 56.2266 59.0789 58.2756 52.6359 58.2756Z" fill="#E92D45"/>
</g>
<defs>
<clipPath id="clip0">
<rect width="46" height="45.5783" fill="white" transform="translate(20 19)"/>
</clipPath>
</defs>
</svg>
