<svg width="85" height="85" viewBox="0 0 85 85" fill="none" xmlns="http://www.w3.org/2000/svg">
<circle cx="42.5" cy="42.5" r="42.5" fill="#EFEFF3"/>
<g clip-path="url(#clip0)">
<path d="M43 30.5C36.6577 30.5 31.5 35.6577 31.5 42C31.5 48.3422 36.6577 53.5 43 53.5C49.3422 53.5 54.5 48.3422 54.5 42C54.5 35.6577 49.3422 30.5 43 30.5ZM48.3667 46.9833C47.7303 47.8324 46.5286 48.0011 45.6852 47.3667L41.8519 44.0125C41.3689 43.6522 41.0853 43.0829 41.0853 42.4792V36.25C41.0853 35.192 41.942 34.3333 43.0019 34.3333C44.0618 34.3333 44.9186 35.192 44.9186 36.25V41.5208L47.9852 44.3C48.8305 44.9344 49.003 46.1362 48.3667 46.9833Z" fill="#E92D45"/>
<path d="M22.875 42.0002C22.875 30.9046 31.9025 21.8752 43 21.8752C46.9848 21.8752 50.7721 23.0386 53.9863 25.147L51.0883 28.0469C50.1837 28.9477 50.8219 30.5002 52.1042 30.5002H60.7292C61.5227 30.5002 62.1667 29.8562 62.1667 29.0627V20.4377C62.1667 19.1631 60.6218 18.5134 59.7133 19.4219L56.0448 23.0904C52.2671 20.4665 47.761 19.0002 43 19.0002C30.3174 19.0002 20 29.3176 20 42.0002C20 44.2485 20.3316 46.4833 20.9833 48.6434C21.2113 49.4005 22.0068 49.8336 22.7753 49.6056C23.5343 49.3756 23.9656 48.5744 23.7356 47.8135C23.1644 45.9217 22.875 43.9667 22.875 42.0002Z" fill="#E92D45"/>
<path d="M65.0185 35.3569C64.7885 34.596 63.993 34.1628 63.2264 34.3947C62.4674 34.6247 62.0361 35.4259 62.2661 36.1868C62.8373 38.0786 63.1267 40.0336 63.1267 42.0001C63.1267 53.0956 54.0992 62.1251 43.0017 62.1251C39.0246 62.1251 35.243 60.9674 32.0345 58.8667L34.9191 55.9496C35.8161 55.0411 35.1721 53.5001 33.8975 53.5001H25.2725C24.8892 53.5001 24.5193 53.6534 24.2509 53.9275C23.9826 54.2016 23.8312 54.5696 23.835 54.9529L23.9309 63.5779C23.9424 64.8544 25.5006 65.4754 26.3899 64.5726L29.9894 60.9329C33.7595 63.5434 38.2541 65.0001 43.0017 65.0001C55.6843 65.0001 66.0017 54.6826 66.0017 42.0001C66.0017 39.7518 65.6701 37.517 65.0185 35.3569Z" fill="#E92D45"/>
</g>
<defs>
<clipPath id="clip0">
<rect width="46" height="46" fill="white" transform="translate(20 19)"/>
</clipPath>
</defs>
</svg>
